<svg width="971" height="815" viewBox="0 0 971 815" fill="none" xmlns="http://www.w3.org/2000/svg">
<path fill-rule="evenodd" clip-rule="evenodd" d="M37.416 57.5301C88.7158 -0.727326 180.56 -17.903 253.305 20.6688L432.728 115.808L368.986 149.906C325.334 168.863 270.188 174.227 237.039 163.094L37.416 57.5301ZM506.377 132.477L717.229 20.6688C789.986 -17.903 881.841 -0.717205 933.129 57.5301L485.273 294.376L307.051 200.127C337.346 210.39 377.648 196.899 421.84 177.689L506.377 132.477Z" fill="#3E3E3E"/>
<path fill-rule="evenodd" clip-rule="evenodd" d="M316.305 661.543V468.391L379.915 502.125C423.787 530.231 458.909 577.882 458.909 610.725V814.818C378.383 803.098 316.305 738.657 316.305 661.543ZM295.19 401.257L84.3486 289.459C11.6472 250.907 -18.0858 169.341 11.0962 99.4438L11.8786 99.6868L409.152 309.782C442.588 329.68 458.435 362.503 458.909 406.632V534.907C458.909 502.064 423.787 474.292 379.915 446.185L295.19 401.257Z" fill="#3E3E3E"/>
<path fill-rule="evenodd" clip-rule="evenodd" d="M654.315 661.543V344.204C658.646 297.788 666.636 257.8 693.845 239.774L561.48 309.782C528.044 329.68 512.186 362.503 511.723 406.632V814.818C592.248 803.098 654.315 738.657 654.315 661.543ZM707.07 384.486L886.283 289.459C958.984 250.907 988.717 169.341 959.535 99.4438L958.742 99.6868L764.42 202.457C735.789 221.758 711.357 270.228 707.059 316.239L707.07 384.486Z" fill="#3E3E3E"/>
</svg>
