<svg width="970" height="527" viewBox="0 0 970 527" fill="none" xmlns="http://www.w3.org/2000/svg">
<g clip-path="url(#clip0_252_3979)">
<path fill-rule="evenodd" clip-rule="evenodd" d="M93.8643 289.345C104.646 277.101 123.949 273.491 139.238 281.598L176.948 301.594L163.551 308.76C154.377 312.744 142.787 313.872 135.82 311.532L93.8643 289.345ZM192.427 305.097L236.742 281.598C252.034 273.491 271.339 277.103 282.119 289.345L187.992 339.124L150.534 319.315C156.901 321.472 165.372 318.637 174.66 314.599L192.427 305.097Z" fill="#343434"/>
<path fill-rule="evenodd" clip-rule="evenodd" d="M152.479 416.293V375.698L165.848 382.788C175.068 388.695 182.45 398.71 182.45 405.613V448.507C165.526 446.044 152.479 432.5 152.479 416.293ZM148.041 361.588L103.728 338.091C88.4479 329.989 82.1989 312.846 88.3321 298.155L88.4966 298.206L171.993 342.363C179.02 346.545 182.35 353.443 182.45 362.718V389.678C182.45 382.775 175.068 376.938 165.848 371.031L148.041 361.588Z" fill="#343434"/>
<path fill-rule="evenodd" clip-rule="evenodd" d="M223.519 416.293V349.597C224.429 339.842 226.108 331.437 231.827 327.649L204.007 342.363C196.98 346.545 193.647 353.443 193.55 362.718V448.507C210.474 446.044 223.519 432.5 223.519 416.293ZM234.606 358.063L272.272 338.091C287.552 329.989 293.801 312.846 287.668 298.155L287.501 298.206L246.66 319.806C240.642 323.862 235.507 334.05 234.604 343.72L234.606 358.063Z" fill="#343434"/>
<path fill-rule="evenodd" clip-rule="evenodd" d="M-76.1357 193.345C-65.3539 181.101 -46.0509 177.491 -30.7618 185.598L6.94798 205.594L-6.44881 212.76C-15.6232 216.744 -27.2134 217.872 -34.1804 215.532L-76.1357 193.345ZM22.427 209.097L66.7425 185.598C82.0339 177.491 101.339 181.103 112.119 193.345L17.9915 243.124L-19.4658 223.315C-13.0986 225.472 -4.6283 222.637 4.65958 218.599L22.427 209.097Z" fill="#343434"/>
<path fill-rule="evenodd" clip-rule="evenodd" d="M-17.5213 320.293V279.698L-4.15228 286.788C5.06843 292.695 12.4501 302.71 12.4501 309.613V352.507C-4.47424 350.044 -17.5213 336.5 -17.5213 320.293ZM-21.9591 265.588L-66.2722 242.091C-81.5521 233.989 -87.8011 216.846 -81.6679 202.155L-81.5034 202.206L1.99254 246.363C9.01983 250.545 12.3505 257.443 12.4501 266.718V293.678C12.4501 286.775 5.06843 280.938 -4.15228 275.031L-21.9591 265.588Z" fill="#343434"/>
<path fill-rule="evenodd" clip-rule="evenodd" d="M53.5189 320.293V253.597C54.4291 243.842 56.1083 235.437 61.827 231.649L34.0074 246.363C26.9801 250.545 23.6471 257.443 23.5498 266.718V352.507C40.4741 350.044 53.5189 336.5 53.5189 320.293ZM64.6064 262.063L102.272 242.091C117.552 233.989 123.801 216.846 117.668 202.155L117.501 202.206L76.6598 223.806C70.6424 227.862 65.5074 238.05 64.6041 247.72L64.6064 262.063Z" fill="#343434"/>
<path fill-rule="evenodd" clip-rule="evenodd" d="M263.864 204.091C274.646 191.847 293.949 188.237 309.238 196.344L346.948 216.34L333.551 223.506C324.377 227.49 312.787 228.618 305.82 226.278L263.864 204.091ZM362.427 219.843L406.742 196.344C422.034 188.237 441.339 191.849 452.119 204.091L357.992 253.87L320.534 234.061C326.901 236.218 335.372 233.383 344.66 229.345L362.427 219.843Z" fill="#343434"/>
<path fill-rule="evenodd" clip-rule="evenodd" d="M322.479 331.039V290.444L335.848 297.534C345.068 303.441 352.45 313.456 352.45 320.359V363.254C335.526 360.79 322.479 347.246 322.479 331.039ZM318.041 276.334L273.728 252.837C258.448 244.735 252.199 227.592 258.332 212.901L258.497 212.952L341.993 257.109C349.02 261.291 352.35 268.189 352.45 277.464V304.424C352.45 297.521 345.068 291.684 335.848 285.777L318.041 276.334Z" fill="#343434"/>
<path fill-rule="evenodd" clip-rule="evenodd" d="M393.519 331.039V264.343C394.429 254.588 396.108 246.183 401.827 242.395L374.007 257.109C366.98 261.291 363.647 268.189 363.55 277.464V363.254C380.474 360.79 393.519 347.246 393.519 331.039ZM404.606 272.81L442.272 252.837C457.552 244.735 463.801 227.592 457.668 212.901L457.501 212.952L416.66 234.552C410.642 238.609 405.507 248.796 404.604 258.466L404.606 272.81Z" fill="#343434"/>
<path fill-rule="evenodd" clip-rule="evenodd" d="M93.8643 108.091C104.646 95.8471 123.949 92.2373 139.238 100.344L176.948 120.34L163.551 127.506C154.377 131.49 142.787 132.618 135.82 130.278L93.8643 108.091ZM192.427 123.843L236.742 100.344C252.034 92.2373 271.339 95.8493 282.119 108.091L187.992 157.87L150.534 138.061C156.901 140.218 165.372 137.383 174.66 133.345L192.427 123.843Z" fill="#343434"/>
<path fill-rule="evenodd" clip-rule="evenodd" d="M152.479 235.039V194.444L165.848 201.534C175.068 207.441 182.45 217.456 182.45 224.359V267.254C165.526 264.79 152.479 251.246 152.479 235.039ZM148.041 180.334L103.728 156.837C88.4479 148.735 82.1989 131.592 88.3321 116.901L88.4966 116.952L171.993 161.109C179.02 165.291 182.35 172.189 182.45 181.464V208.424C182.45 201.521 175.068 195.684 165.848 189.777L148.041 180.334Z" fill="#343434"/>
<path fill-rule="evenodd" clip-rule="evenodd" d="M223.519 235.039V168.343C224.429 158.588 226.108 150.183 231.827 146.395L204.007 161.109C196.98 165.291 193.647 172.189 193.55 181.464V267.254C210.474 264.79 223.519 251.246 223.519 235.039ZM234.606 176.81L272.272 156.837C287.552 148.735 293.801 131.592 287.668 116.901L287.501 116.952L246.66 138.552C240.642 142.609 235.507 152.796 234.604 162.466L234.606 176.81Z" fill="#343434"/>
<path fill-rule="evenodd" clip-rule="evenodd" d="M-76.1357 12.0913C-65.3539 -0.152864 -46.0509 -3.76271 -30.7618 4.34402L6.94798 24.3396L-6.44881 31.5062C-15.6232 35.4904 -27.2134 36.6178 -34.1804 34.2779L-76.1357 12.0913ZM22.427 27.8431L66.7425 4.34402C82.0339 -3.76271 101.339 -0.150737 112.119 12.0913L17.9915 61.8697L-19.4658 42.0613C-13.0986 44.2183 -4.6283 41.3827 4.65958 37.3453L22.427 27.8431Z" fill="#343434"/>
<path fill-rule="evenodd" clip-rule="evenodd" d="M-17.5213 139.039V98.444L-4.15228 105.534C5.06843 111.441 12.4501 121.456 12.4501 128.359V171.254C-4.47424 168.79 -17.5213 155.246 -17.5213 139.039ZM-21.9591 84.3343L-66.2722 60.8373C-81.5521 52.7348 -87.8011 35.5918 -81.6679 20.9014L-81.5034 20.9524L1.99254 65.1087C9.01983 69.2908 12.3505 76.1893 12.4501 85.4638V112.424C12.4501 105.521 5.06843 99.6841 -4.15228 93.7769L-21.9591 84.3343Z" fill="#343434"/>
<path fill-rule="evenodd" clip-rule="evenodd" d="M53.5189 139.039V72.3433C54.4291 62.588 56.1083 54.1834 61.827 50.3949L34.0074 65.1087C26.9801 69.2908 23.6471 76.1893 23.5498 85.4638V171.254C40.4741 168.79 53.5189 155.246 53.5189 139.039ZM64.6064 80.8095L102.272 60.8373C117.552 52.7348 123.801 35.5918 117.668 20.9014L117.501 20.9524L76.6598 42.5519C70.6424 46.6085 65.5074 56.7956 64.6041 66.4659L64.6064 80.8095Z" fill="#343434"/>
<path fill-rule="evenodd" clip-rule="evenodd" d="M263.864 385.345C274.646 373.101 293.949 369.491 309.238 377.598L346.948 397.594L333.551 404.76C324.377 408.744 312.787 409.872 305.82 407.532L263.864 385.345ZM362.427 401.097L406.742 377.598C422.034 369.491 441.339 373.103 452.119 385.345L357.992 435.124L320.534 415.315C326.901 417.472 335.372 414.637 344.66 410.599L362.427 401.097Z" fill="#343434"/>
<path fill-rule="evenodd" clip-rule="evenodd" d="M322.479 512.294V471.698L335.848 478.788C345.068 484.696 352.45 494.71 352.45 501.613V544.508C335.526 542.045 322.479 528.501 322.479 512.294ZM318.041 457.589L273.728 434.092C258.448 425.989 252.199 408.846 258.332 394.156L258.497 394.207L341.993 438.363C349.02 442.545 352.35 449.444 352.45 458.718V485.678C352.45 478.776 345.068 472.939 335.848 467.031L318.041 457.589Z" fill="#343434"/>
<path fill-rule="evenodd" clip-rule="evenodd" d="M393.519 512.294V445.598C394.429 435.842 396.108 427.438 401.827 423.649L374.007 438.363C366.98 442.545 363.647 449.444 363.55 458.718V544.508C380.474 542.045 393.519 528.501 393.519 512.294ZM404.606 454.064L442.272 434.092C457.552 425.989 463.801 408.846 457.668 394.156L457.501 394.207L416.66 415.806C410.642 419.863 405.507 430.05 404.604 439.72L404.606 454.064Z" fill="#343434"/>
<path fill-rule="evenodd" clip-rule="evenodd" d="M603.864 385.091C614.646 372.847 633.949 369.237 649.238 377.344L686.948 397.34L673.551 404.506C664.377 408.49 652.787 409.618 645.82 407.278L603.864 385.091ZM702.427 400.843L746.742 377.344C762.034 369.237 781.339 372.849 792.119 385.091L697.992 434.87L660.534 415.061C666.901 417.218 675.372 414.383 684.66 410.345L702.427 400.843Z" fill="#343434"/>
<path fill-rule="evenodd" clip-rule="evenodd" d="M662.479 512.04V471.444L675.848 478.534C685.068 484.442 692.45 494.456 692.45 501.359V544.254C675.526 541.791 662.479 528.247 662.479 512.04ZM658.041 457.335L613.728 433.838C598.448 425.735 592.199 408.592 598.332 393.902L598.497 393.953L681.993 438.109C689.02 442.291 692.35 449.19 692.45 458.464V485.424C692.45 478.522 685.068 472.685 675.848 466.777L658.041 457.335Z" fill="#343434"/>
<path fill-rule="evenodd" clip-rule="evenodd" d="M733.519 512.04V445.344C734.429 435.588 736.108 427.184 741.827 423.395L714.007 438.109C706.98 442.291 703.647 449.19 703.55 458.464V544.254C720.474 541.791 733.519 528.247 733.519 512.04ZM744.606 453.81L782.272 433.838C797.552 425.735 803.801 408.592 797.668 393.902L797.501 393.953L756.66 415.552C750.642 419.609 745.507 429.796 744.604 439.466L744.606 453.81Z" fill="#343434"/>
<path fill-rule="evenodd" clip-rule="evenodd" d="M433.864 300.091C444.646 287.847 463.949 284.237 479.238 292.344L516.948 312.34L503.551 319.506C494.377 323.49 482.787 324.618 475.82 322.278L433.864 300.091ZM532.427 315.843L576.742 292.344C592.034 284.237 611.339 287.849 622.119 300.091L527.992 349.87L490.534 330.061C496.901 332.218 505.372 329.383 514.66 325.345L532.427 315.843Z" fill="#343434"/>
<path fill-rule="evenodd" clip-rule="evenodd" d="M492.479 427.039V386.444L505.848 393.534C515.068 399.441 522.45 409.456 522.45 416.359V459.254C505.526 456.79 492.479 443.246 492.479 427.039ZM488.041 372.334L443.728 348.837C428.448 340.735 422.199 323.592 428.332 308.901L428.497 308.952L511.993 353.109C519.02 357.291 522.35 364.189 522.45 373.464V400.424C522.45 393.521 515.068 387.684 505.848 381.777L488.041 372.334Z" fill="#343434"/>
<path fill-rule="evenodd" clip-rule="evenodd" d="M563.519 427.039V360.343C564.429 350.588 566.108 342.183 571.827 338.395L544.007 353.109C536.98 357.291 533.647 364.189 533.55 373.464V459.254C550.474 456.79 563.519 443.246 563.519 427.039ZM574.606 368.81L612.272 348.837C627.552 340.735 633.801 323.592 627.668 308.901L627.501 308.952L586.66 330.552C580.642 334.609 575.507 344.796 574.604 354.466L574.606 368.81Z" fill="#343434"/>
<path fill-rule="evenodd" clip-rule="evenodd" d="M93.8643 470.599C104.646 458.355 123.949 454.745 139.238 462.852L176.948 482.847L163.551 490.014C154.377 493.998 142.787 495.126 135.82 492.786L93.8643 470.599ZM192.427 486.351L236.742 462.852C252.034 454.745 271.339 458.357 282.119 470.599L187.992 520.378L150.534 500.569C156.901 502.726 165.372 499.891 174.66 495.853L192.427 486.351Z" fill="#343434"/>
<path fill-rule="evenodd" clip-rule="evenodd" d="M152.479 597.548V556.952L165.848 564.042C175.068 569.949 182.45 579.964 182.45 586.867V629.762C165.526 627.299 152.479 613.755 152.479 597.548ZM148.041 542.843L103.728 519.346C88.4479 511.243 82.1989 494.1 88.3321 479.41L88.4966 479.461L171.993 523.617C179.02 527.799 182.35 534.698 182.45 543.972V570.932C182.45 564.029 175.068 558.192 165.848 552.285L148.041 542.843Z" fill="#343434"/>
<path fill-rule="evenodd" clip-rule="evenodd" d="M223.519 597.548V530.852C224.429 521.096 226.108 512.692 231.827 508.903L204.007 523.617C196.98 527.799 193.647 534.698 193.55 543.972V629.762C210.474 627.299 223.519 613.755 223.519 597.548ZM234.606 539.318L272.272 519.346C287.552 511.243 293.801 494.1 287.668 479.41L287.501 479.461L246.66 501.06C240.642 505.117 235.507 515.304 234.604 524.974L234.606 539.318Z" fill="#343434"/>
<path fill-rule="evenodd" clip-rule="evenodd" d="M433.864 481.345C444.646 469.101 463.949 465.491 479.238 473.598L516.948 493.594L503.551 500.76C494.377 504.744 482.787 505.872 475.82 503.532L433.864 481.345ZM532.427 497.097L576.742 473.598C592.034 465.491 611.339 469.103 622.119 481.345L527.992 531.124L490.534 511.315C496.901 513.472 505.372 510.637 514.66 506.599L532.427 497.097Z" fill="#343434"/>
<path fill-rule="evenodd" clip-rule="evenodd" d="M492.479 608.294V567.698L505.848 574.788C515.068 580.696 522.45 590.71 522.45 597.613V640.508C505.526 638.045 492.479 624.501 492.479 608.294ZM488.041 553.589L443.728 530.092C428.448 521.989 422.199 504.846 428.332 490.156L428.497 490.207L511.993 534.363C519.02 538.545 522.35 545.444 522.45 554.718V581.678C522.45 574.776 515.068 568.939 505.848 563.031L488.041 553.589Z" fill="#343434"/>
<path fill-rule="evenodd" clip-rule="evenodd" d="M563.519 608.294V541.598C564.429 531.842 566.108 523.438 571.827 519.649L544.007 534.363C536.98 538.545 533.647 545.444 533.55 554.718V640.508C550.474 638.045 563.519 624.501 563.519 608.294ZM574.606 550.064L612.272 530.092C627.552 521.989 633.801 504.846 627.668 490.156L627.501 490.207L586.66 511.806C580.642 515.863 575.507 526.05 574.604 535.72L574.606 550.064Z" fill="#343434"/>
<path fill-rule="evenodd" clip-rule="evenodd" d="M773.864 481.091C784.646 468.847 803.949 465.237 819.238 473.344L856.948 493.34L843.551 500.506C834.377 504.49 822.787 505.618 815.82 503.278L773.864 481.091ZM872.427 496.843L916.742 473.344C932.034 465.237 951.339 468.849 962.119 481.091L867.992 530.87L830.534 511.061C836.901 513.218 845.372 510.383 854.66 506.345L872.427 496.843Z" fill="#343434"/>
<path fill-rule="evenodd" clip-rule="evenodd" d="M832.479 608.04V567.444L845.848 574.534C855.068 580.442 862.45 590.456 862.45 597.359V640.254C845.526 637.791 832.479 624.247 832.479 608.04ZM828.041 553.335L783.728 529.838C768.448 521.735 762.199 504.592 768.332 489.902L768.497 489.953L851.993 534.109C859.02 538.291 862.35 545.19 862.45 554.464V581.424C862.45 574.522 855.068 568.685 845.848 562.777L828.041 553.335Z" fill="#343434"/>
<path fill-rule="evenodd" clip-rule="evenodd" d="M903.519 608.04V541.344C904.429 531.588 906.108 523.184 911.827 519.395L884.007 534.109C876.98 538.291 873.647 545.19 873.55 554.464V640.254C890.474 637.791 903.519 624.247 903.519 608.04ZM914.606 549.81L952.272 529.838C967.552 521.735 973.801 504.592 967.668 489.902L967.501 489.953L926.66 511.552C920.642 515.609 915.507 525.796 914.604 535.466L914.606 549.81Z" fill="#343434"/>
<path fill-rule="evenodd" clip-rule="evenodd" d="M-76.1357 374.599C-65.3539 362.355 -46.0509 358.745 -30.7618 366.852L6.94798 386.847L-6.44881 394.014C-15.6232 397.998 -27.2134 399.126 -34.1804 396.786L-76.1357 374.599ZM22.427 390.351L66.7425 366.852C82.0339 358.745 101.339 362.357 112.119 374.599L17.9915 424.378L-19.4658 404.569C-13.0986 406.726 -4.6283 403.891 4.65958 399.853L22.427 390.351Z" fill="#343434"/>
<path fill-rule="evenodd" clip-rule="evenodd" d="M-17.5213 501.548V460.952L-4.15228 468.042C5.06843 473.949 12.4501 483.964 12.4501 490.867V533.762C-4.47424 531.299 -17.5213 517.755 -17.5213 501.548ZM-21.9591 446.843L-66.2722 423.346C-81.5521 415.243 -87.8011 398.1 -81.6679 383.41L-81.5034 383.461L1.99254 427.617C9.01983 431.799 12.3505 438.698 12.4501 447.972V474.932C12.4501 468.029 5.06843 462.192 -4.15228 456.285L-21.9591 446.843Z" fill="#343434"/>
<path fill-rule="evenodd" clip-rule="evenodd" d="M53.5189 501.548V434.852C54.4291 425.096 56.1083 416.692 61.827 412.903L34.0074 427.617C26.9801 431.799 23.6471 438.698 23.5498 447.972V533.762C40.4741 531.299 53.5189 517.755 53.5189 501.548ZM64.6064 443.318L102.272 423.346C117.552 415.243 123.801 398.1 117.668 383.41L117.501 383.461L76.6598 405.06C70.6424 409.117 65.5074 419.304 64.6041 428.974L64.6064 443.318Z" fill="#343434"/>
</g>
<defs>
<clipPath id="clip0_252_3979">
<rect width="970" height="527" fill="white"/>
</clipPath>
</defs>
</svg>
