<svg width="684" height="188" viewBox="0 0 684 188" fill="none" xmlns="http://www.w3.org/2000/svg">
<g clip-path="url(#clip0_663_5285)">
<path fill-rule="evenodd" clip-rule="evenodd" d="M349.06 157.97H356.77V170.15C353.37 173.95 348.65 175.85 342.62 175.85C337.58 175.85 333.34 174.18 329.92 170.84C326.5 167.5 324.79 163.28 324.79 158.19C324.79 153.1 326.53 148.85 330.02 145.44C333.51 142.03 337.71 140.33 342.64 140.33C347.57 140.33 351.85 141.95 355.48 145.19L351.5 150.94C349.96 149.6 348.54 148.67 347.25 148.16C345.96 147.65 344.56 147.4 343.05 147.4C340.14 147.4 337.68 148.39 335.68 150.37C333.68 152.35 332.68 154.96 332.68 158.21C332.68 161.46 333.64 164.05 335.55 165.99C337.47 167.94 339.75 168.91 342.4 168.91C345.05 168.91 347.26 168.4 349.03 167.39V157.96L349.06 157.97ZM415.54 152.52C415.54 158.02 413.36 161.57 409.01 163.18L417.7 175.46H408.27L400.66 164.51H395.36V175.46H387.7V141.13H400.72C406.06 141.13 409.86 142.03 412.14 143.83C414.42 145.63 415.55 148.53 415.55 152.52H415.54ZM400.96 157.87C403.58 157.87 405.36 157.45 406.31 156.59C407.26 155.74 407.73 154.39 407.73 152.54C407.73 150.69 407.24 149.42 406.26 148.73C405.28 148.04 403.56 147.7 401.1 147.7H395.35V157.87H400.95H400.96ZM473.43 158.09C473.43 155.03 472.45 152.42 470.48 150.26C468.52 148.1 466.1 147.02 463.24 147.02C460.38 147.02 457.96 148.1 455.99 150.26C454.03 152.42 453.04 155.03 453.04 158.09C453.04 161.15 454.02 163.76 455.99 165.9C457.95 168.04 460.37 169.12 463.24 169.12C466.11 169.12 468.52 168.05 470.48 165.9C472.44 163.76 473.43 161.15 473.43 158.09ZM476.03 170.72C472.56 174.11 468.28 175.8 463.21 175.8C458.14 175.8 453.86 174.11 450.39 170.72C446.92 167.33 445.18 163.12 445.18 158.07C445.18 153.02 446.91 148.81 450.39 145.42C453.86 142.03 458.14 140.33 463.21 140.33C468.28 140.33 472.56 142.02 476.03 145.42C479.5 148.81 481.24 153.02 481.24 158.07C481.24 163.12 479.5 167.33 476.03 170.72ZM520.9 166.59C522.18 168.18 523.9 168.97 526.06 168.97C528.22 168.97 529.93 168.18 531.19 166.59C532.45 165 533.08 162.83 533.08 160.08V141.12H540.74V160.33C540.74 165.31 539.37 169.13 536.61 171.8C533.86 174.47 530.34 175.8 526.05 175.8C521.76 175.8 518.23 174.46 515.47 171.77C512.7 169.09 511.32 165.27 511.32 160.33V141.12H518.98V160.08C518.98 162.83 519.62 165 520.9 166.59ZM584.93 141.13C590.2 141.13 594.04 142.15 596.45 144.2C598.86 146.24 600.06 149.39 600.06 153.63C600.06 157.87 598.82 160.97 596.35 162.94C593.88 164.91 590.1 165.89 585.03 165.89H580.46V175.47H572.8V141.14H584.93V141.13ZM585.62 159.25C588.17 159.25 589.91 158.74 590.82 157.7C591.74 156.67 592.2 155.16 592.2 153.18C592.2 151.2 591.6 149.79 590.41 148.95C589.22 148.12 587.36 147.7 584.84 147.7H580.47V159.24H585.63L585.62 159.25Z" fill="white"/>
<path fill-rule="evenodd" clip-rule="evenodd" d="M568.46 115.94H548.73V81.0601L518.15 27.6001C534.94 27.6001 538.71 26.1101 546.05 38.8601L558.61 60.4601L571.15 38.8501C578.59 25.9601 582.25 27.6001 599.04 27.6001L568.46 81.0601V115.94Z" fill="white"/>
<path fill-rule="evenodd" clip-rule="evenodd" d="M292.16 115.94H272.43V81.0601L241.85 27.6001C258.64 27.6001 262.39 26.1101 269.74 38.8601L280.13 56.7301L282.3 60.4601L294.83 38.8501C302.27 25.9601 305.93 27.6001 322.72 27.6001L292.15 81.0601V115.94H292.16Z" fill="white"/>
<path fill-rule="evenodd" clip-rule="evenodd" d="M402.71 103.75C393.78 112.47 382.8 116.84 369.72 116.84C356.64 116.84 345.67 112.47 336.74 103.75C327.81 95.0201 323.34 84.1801 323.34 71.2101C323.34 58.2401 327.81 47.3701 336.74 38.6501C345.67 29.9401 356.67 25.5701 369.72 25.5701C382.77 25.5701 393.78 29.9401 402.71 38.6501C411.64 47.3701 416.12 58.2301 416.12 71.2101C416.12 84.1901 411.65 95.0201 402.71 103.75ZM396.01 71.2601C396.01 63.3901 393.48 56.6601 388.43 51.1101C383.38 45.5401 377.17 42.7601 369.79 42.7601C362.41 42.7601 356.2 45.5501 351.15 51.1101C346.09 56.6701 343.57 63.3901 343.57 71.2601C343.57 79.1301 346.09 85.8501 351.15 91.3501C356.21 96.8801 362.42 99.6501 369.79 99.6501C377.16 99.6501 383.38 96.8801 388.43 91.3501C393.47 85.8501 396.01 79.1501 396.01 71.2601Z" fill="white"/>
<path fill-rule="evenodd" clip-rule="evenodd" d="M511.08 64.2901V102.28C502.32 112.07 490.18 116.96 474.68 116.96C461.7 116.96 450.81 112.65 442.01 104.07C433.18 95.4701 428.79 84.6201 428.79 71.5101C428.79 58.4001 433.28 47.4801 442.25 38.7101C451.23 29.9501 462.05 25.5601 474.74 25.5601C487.43 25.5601 498.44 29.7301 507.8 38.0801C504.38 43.0201 500.97 47.9401 497.56 52.8701C493.6 49.4301 489.95 47.0401 486.63 45.7301C483.3 44.4201 479.7 43.7601 475.82 43.7601C468.31 43.7601 462 46.3201 456.86 51.4201C451.72 56.5101 449.15 63.2401 449.15 71.5801C449.15 79.9201 451.62 86.6101 456.53 91.6101C461.46 96.6201 467.35 99.1301 474.17 99.1301C480.99 99.1301 486.68 97.8301 491.24 95.2201V82.2901C491.24 77.3801 493.24 64.3001 511.08 64.3001V64.2901Z" fill="white"/>
<path fill-rule="evenodd" clip-rule="evenodd" d="M656.97 103.13L654.28 96.8601H617.26L614.64 102.94C608.38 117.52 605.94 115.95 588.07 115.95L626.25 27.6101H645.33L683.5 115.95C665.78 115.95 663.1 117.32 656.98 103.14L656.97 103.13ZM635.83 53.8801L624.71 79.5501H646.82L635.83 53.8801Z" fill="white"/>
<path d="M91.54 26.9799L65.66 12.0299L57.99 7.60989L54.08 5.35989C49.6 2.77989 44.8 1.25989 39.95 0.71989C27.93 -0.59011 15.67 4.14989 7.78003 13.7499L42.32 33.6899C46.47 36.0899 49.83 37.3699 54.66 38.1199C64.55 39.6299 73.01 37.7099 81.3 32.9099C82.43 32.2599 83.55 31.6099 84.68 30.9599H84.67L91.55 26.9699L91.54 26.9799Z" fill="white"/>
<path d="M149.32 90.04L175.19 75.1L182.87 70.67L186.77 68.41C191.25 65.83 194.97 62.42 197.84 58.48C205.01 48.73 207.01 35.74 202.65 24.1L168.11 44.04C163.96 46.43 161.17 48.69 158.11 52.5C151.84 60.32 149.29 68.61 149.29 78.18V82.08H149.3V90.02L149.32 90.04Z" fill="white"/>
<path d="M66.6 108.4V147.15V151.66C66.6 156.82 67.69 161.75 69.66 166.22C74.53 177.29 84.77 185.53 97.04 187.57V147.69C97.04 142.9 96.47 139.36 94.69 134.8C91.06 125.46 85.16 119.12 76.87 114.33C75.75 113.68 74.62 113.03 73.5 112.38V112.4L66.61 108.41L66.6 108.4Z" fill="white"/>
<path d="M123.03 70.09C113.69 75.49 109.05 82.25 109.05 94.41V187.57C121.3 185.53 131.55 177.29 136.42 166.22C138.38 161.76 139.46 156.83 139.46 151.66V147.15V99.99V93.63C139.46 88.3 139.46 82.95 139.46 77.62C139.46 69.89 142.07 62.72 145.6 57.13L138.67 61.07L123.03 70.1V70.09Z" fill="white"/>
<path d="M87.65 59.8699C96.99 65.2699 105.17 65.8999 115.71 59.8199L171.83 27.4199L171.87 27.3999L196.38 13.2499C188.48 3.63995 176.22 -1.11005 164.21 0.219948C159.36 0.749948 154.54 2.26995 150.07 4.84995L146.16 7.09995L141.27 9.91995L138.49 11.5199L126.19 18.6399L105.33 30.6799L99.82 33.8799C95.19 36.5499 90.57 39.2099 85.95 41.8799C79.25 45.7399 71.74 47.0799 65.14 46.8099L72.02 50.8299L87.65 59.8599V59.8699Z" fill="white"/>
<path d="M97.04 94.1C97.04 83.31 93.5 75.91 82.96 69.82L26.84 37.43L26.8 37.4L2.29002 23.25C-2.06998 34.89 -0.0599799 47.89 7.10002 57.64C9.98002 61.57 13.7 64.98 18.18 67.57L22.08 69.83L26.98 72.65L29.75 74.25L42.06 81.36L62.92 93.41L68.43 96.58C73.05 99.25 77.67 101.92 82.3 104.58C89 108.45 93.91 114.29 96.97 120.14L97.03 112.17V94.11L97.04 94.1Z" fill="white"/>
</g>
<defs>
<clipPath id="clip0_663_5285">
<rect width="683.48" height="187.57" fill="white"/>
</clipPath>
</defs>
</svg>
