<svg width="17" height="19" viewBox="0 0 17 19" fill="none" xmlns="http://www.w3.org/2000/svg">
<path d="M12.9826 5.04518C13.4874 4.43091 14.406 4.33545 14.9264 4.93657C15.752 5.89022 16.359 7.02051 16.6964 8.2484C17.1615 9.94153 17.0908 11.7372 16.4942 13.3885C15.8975 15.0399 14.804 16.4659 13.3641 17.4707C11.9241 18.4755 10.2084 19.0097 8.45254 18.9999C6.69671 18.9901 4.98701 18.4367 3.55837 17.4159C2.12974 16.3952 1.05229 14.957 0.474086 13.2991C-0.104117 11.6411 -0.154697 9.84484 0.329298 8.15701C0.680301 6.93296 1.29997 5.80952 2.13615 4.86514C2.66323 4.26988 3.58067 4.37559 4.07857 4.99546V4.99546C4.57647 5.61533 4.45827 6.51381 3.98476 7.15251C3.58572 7.69075 3.2838 8.29915 3.09698 8.95065C2.77693 10.0668 2.81038 11.2546 3.19272 12.3509C3.57507 13.4473 4.28755 14.3983 5.23226 15.0733C6.17697 15.7483 7.30754 16.1142 8.46861 16.1207C9.62968 16.1272 10.7643 15.7739 11.7165 15.1095C12.6686 14.4451 13.3917 13.5021 13.7863 12.4101C14.1808 11.3181 14.2276 10.1307 13.92 9.01109C13.7405 8.35754 13.4453 7.74581 13.0523 7.20314C12.586 6.5592 12.4778 5.65945 12.9826 5.04518V5.04518Z" fill="white"/>
<line x1="8.5" y1="1.5" x2="8.5" y2="9.5" stroke="white" stroke-width="3" stroke-linecap="round"/>
</svg>
