<svg width="2634" height="440" viewBox="0 0 2634 440" fill="none" xmlns="http://www.w3.org/2000/svg">
<path d="M192.348 0.928294C169.199 3.92591 150.048 9.25501 130.397 17.9148C126.567 19.7467 123.069 21.0789 122.57 21.0789C122.07 21.0789 115.908 24.5762 108.747 28.9061C90.4287 39.8973 71.4438 54.3858 69.945 58.5492C68.4462 62.546 70.6111 98.5174 73.2757 113.505C80.9363 155.639 102.253 183.117 132.062 189.279C147.716 192.443 146.884 194.441 146.051 153.141C145.052 103.347 143.72 94.6871 132.229 56.5507C127.399 41.2296 127.566 36.5666 132.395 37.3993C142.387 39.0646 165.536 61.5468 173.03 76.7014C182.356 96.0194 183.521 104.18 182.855 148.478L182.356 188.446L186.519 188.945C193.513 189.778 202.173 194.275 205.504 198.771C210 204.766 210.833 215.758 207.502 222.419C204.338 228.414 199.176 230.912 189.85 230.912C183.854 230.912 183.188 231.245 182.356 236.574C181.689 239.572 182.189 252.062 183.188 264.219C184.521 279.041 184.521 286.868 183.521 287.867C180.524 290.864 173.196 287.7 165.869 280.206C156.376 270.88 150.048 256.725 147.217 239.572C146.551 235.575 145.218 232.577 144.053 232.577C140.889 232.577 126.567 244.235 108.248 261.388C73.4422 294.195 59.7864 301.356 41.6342 296.693C31.1425 294.029 19.3186 288.866 14.3225 285.036C8.99345 280.872 8.16078 284.536 11.8245 295.028C26.1465 335.829 58.2876 377.129 95.0917 401.776C119.739 418.263 143.553 428.422 174.862 436.082C187.352 439.08 248.636 439.08 262.292 436.082C279.778 432.086 303.426 423.925 317.248 417.097C368.208 391.784 409.841 344.489 427.827 291.531C429.659 286.202 430.825 281.372 430.325 281.039C429.992 280.706 426.661 282.371 422.998 284.869C407.01 295.361 389.691 299.191 376.035 295.194C365.21 292.03 354.052 283.703 328.906 260.056C318.248 249.897 308.256 241.071 306.757 240.238C305.258 239.405 303.593 238.24 303.093 237.573C301.927 235.908 295.266 232.577 293.267 232.577C292.268 232.577 291.102 235.409 290.603 238.739C288.771 249.897 282.942 266.217 278.279 272.546C272.617 280.539 261.293 289.199 256.463 289.199C252.633 289.199 252.633 289.033 254.132 276.209C254.798 269.215 255.464 256.225 255.464 247.566L255.631 231.745L246.471 230.579C238.811 229.746 236.479 228.581 232.815 224.084C221.491 210.595 232.316 189.279 250.635 189.279H256.796L255.631 153.807C253.965 102.681 256.463 88.0257 270.785 66.5428C279.945 52.887 303.593 34.0686 308.089 36.8997C310.087 38.0654 308.922 49.3898 306.257 54.3858C302.76 61.2137 297.264 82.8632 294.6 101.015C292.601 113.672 291.602 185.282 293.267 187.946C295.099 190.944 311.586 188.446 320.912 183.783C336.733 175.623 348.224 161.967 356.051 141.816C364.877 119.001 366.876 107.677 367.042 80.1986L367.209 55.2185L355.551 46.3922C327.573 25.2423 298.763 11.5865 265.789 4.25898C249.136 0.595225 209.501 -1.23665 192.348 0.928294ZM160.04 293.362C165.702 296.36 171.531 304.853 171.531 310.349C171.531 312.347 169.699 316.178 167.368 318.842C156.376 331.998 166.701 349.984 194.846 366.138C205.837 372.466 208.501 373.299 217.328 373.299C225.821 373.299 229.318 372.133 239.643 366.638C246.471 362.974 256.463 355.813 261.959 350.817C270.619 342.657 271.785 340.825 272.617 333.664C273.45 327.002 272.784 324.837 268.953 319.009C263.458 310.516 264.124 307.185 273.117 298.359C279.112 292.363 280.777 291.697 288.105 291.697C294.766 291.697 297.098 292.53 301.428 296.693C310.754 305.519 313.918 313.347 313.918 328.335C313.918 340.159 313.252 342.823 308.256 352.482C297.098 374.298 272.118 393.283 243.973 401.61C217.494 409.603 182.855 402.276 155.377 382.958C134.893 368.636 123.236 348.319 123.236 326.503C123.236 302.022 142.72 284.536 160.04 293.362Z" fill="#E81F25"/>
<path d="M29.4766 107.177C20.8168 120.833 12.3235 140.983 6.99444 160.135C0.999206 181.618 0 187.613 0 199.936C0 223.751 15.4877 250.063 32.9738 255.725C45.7969 260.055 57.1213 252.228 66.1141 232.744C71.6097 220.753 82.7675 204.766 87.597 202.101C91.4273 199.936 90.4281 197.938 80.103 186.281C74.6073 180.119 67.4464 171.126 64.1157 166.13C55.789 153.973 44.2981 129.492 39.8017 113.838C37.6367 106.844 35.3053 101.015 34.6391 101.015C33.973 101.015 31.6415 103.846 29.4766 107.177Z" fill="#E81F25"/>
<path d="M402.179 102.847C401.513 103.68 399.348 110.008 397.183 116.67C388.19 145.147 372.037 172.459 353.551 190.444C350.554 193.275 348.056 196.44 348.056 197.439C348.056 198.438 351.386 202.435 355.383 206.598C359.88 210.928 365.542 219.754 369.872 228.414C381.363 252.395 388.69 258.057 404.011 255.06C412.504 253.561 423.995 242.237 430.99 228.414C436.818 217.09 436.985 216.091 437.152 198.438C437.152 188.279 436.319 177.122 435.153 173.458C433.987 169.794 431.489 161.134 429.657 154.306C426.16 141.483 407.009 101.016 404.677 101.016C403.845 101.016 402.679 101.848 402.179 102.847Z" fill="#E81F25"/>
<path d="M1139.81 4.91229C1122.49 12.9615 1113.21 23.9853 1061.59 97.8278C1054.95 107.452 1047.25 118.126 1044.8 121.45C1042.17 124.775 1034.3 135.799 1027.3 145.948C1020.12 156.097 1009.62 170.97 1003.68 179.194C993.876 192.668 943.657 263.011 932.633 278.584C930.183 282.259 923.359 291.708 917.759 299.932C903.936 319.355 890.987 337.553 877.163 356.276C870.864 364.85 866.315 372.9 866.665 374.649C867.189 377.624 870.689 377.799 910.06 378.324C933.683 378.499 954.681 378.324 956.78 377.799C960.805 376.924 969.204 365.9 1030.97 278.934C1042.87 262.136 1053.9 246.738 1055.3 244.463C1058.62 239.388 1110.59 166.596 1123.36 149.098C1128.79 141.573 1139.29 126.875 1146.99 116.201C1162.56 94.3281 1161.51 94.5031 1172.36 110.951C1175.86 116.201 1186.53 131.949 1196.16 145.948C1205.6 159.946 1217.68 177.445 1222.75 184.969C1227.83 192.493 1232.03 199.317 1232.03 200.367C1232.03 201.242 1210.68 201.942 1178.13 201.942H1124.24L1119.86 206.667C1114.44 212.616 1079.27 260.736 1076.64 265.986C1075.59 268.085 1075.24 270.185 1075.77 270.885C1076.29 271.41 1144.89 271.935 1228 271.935C1364.84 271.935 1379.01 271.76 1379.01 269.135C1379.01 266.685 1372.01 256.012 1344.19 215.941C1325.64 189.168 1304.82 158.897 1277.87 119.701C1212.95 25.5602 1209.8 21.1856 1197.91 11.9116C1187.23 3.68742 1177.78 0.712721 1162.38 0.712721C1151.89 0.712721 1146.99 1.58763 1139.81 4.91229Z" fill="#3D3D3D"/>
<path d="M1416.28 7.01169C1414.18 8.41155 1415.06 10.3364 1421.36 18.0356C1425.38 23.285 1431.33 30.4593 1434.13 33.9589C1437.11 37.6336 1445.51 48.1325 1453.03 57.4065L1466.5 74.2048H1559.24C1639.04 74.2048 1652.86 74.5548 1658.63 77.0045C1673.16 82.7789 1673.16 100.627 1658.63 106.402C1652.86 108.851 1636.41 109.201 1533.35 109.201C1443.41 109.201 1414.18 109.726 1412.61 111.301C1411.03 112.876 1410.51 132.649 1410.51 189.868C1410.51 232.039 1411.03 267.56 1411.56 269.135C1412.61 271.585 1425.03 271.935 1534.57 271.935C1659.33 271.935 1678.23 271.06 1698.35 264.935C1726.7 256.186 1740.53 244.987 1748.57 223.989C1751.9 215.065 1752.6 210.166 1752.42 194.068C1752.42 177.969 1751.72 173.42 1748.4 166.42C1743.32 155.571 1734.05 145.248 1724.08 139.473L1716.2 134.749L1721.28 130.724C1732.3 121.625 1737.73 115.151 1742.27 105.877C1746.47 97.1275 1747 94.1528 1747 77.7045C1747.17 60.0313 1746.82 58.6314 1741.22 48.3075C1734.23 35.1838 1722.85 24.5099 1708.68 17.5106C1686.98 6.83671 1690.83 7.18667 1548.92 6.13678C1459.33 5.43685 1417.86 5.61184 1416.28 7.01169ZM1665.28 172.37C1671.93 179.194 1672.11 189.693 1665.46 196.167L1660.73 201.067L1581.47 201.592C1538.07 201.942 1500.62 201.592 1498.52 201.067C1494.68 200.192 1494.5 199.317 1494.5 184.619C1494.5 176.219 1495.03 168.695 1495.73 167.995C1496.42 167.295 1533.87 167.12 1578.84 167.295L1660.73 167.82L1665.28 172.37Z" fill="#3D3D3D"/>
<path d="M1793.55 6.31126C1790.4 7.53613 1790.22 9.98588 1790.22 81.7285C1790.22 157.671 1791.45 176.569 1797.22 195.817C1802.99 214.715 1813.32 229.413 1829.24 241.487C1848.31 255.836 1868.09 263.71 1902.21 270.534C1918.13 273.684 1927.06 274.209 1970.45 274.384C2012.62 274.384 2022.42 274.034 2034.32 271.234C2095.91 257.411 2125.84 233.088 2136.86 187.943C2139.83 176.044 2140.18 166.595 2140.18 91.3525C2140.18 45.5072 2139.48 7.53613 2138.61 7.01118C2137.91 6.48624 2119.71 5.96129 2098.19 5.96129C2067.74 5.78631 2058.82 6.31126 2057.77 8.06108C2056.89 9.28595 2056.19 46.7321 2056.19 91.3525C2056.19 168.345 2056.02 172.719 2052.69 179.019C2047.79 188.993 2036.77 197.392 2023.3 201.941C2012.27 205.616 2008.77 205.791 1967.48 205.616C1929.33 205.616 1921.81 205.091 1910.96 202.116C1896.61 198.092 1884.71 191.617 1880.86 185.843C1874.21 175.519 1873.86 170.444 1873.86 89.2528C1874.04 45.8572 1873.51 9.46093 1872.81 8.23606C1871.24 5.78631 1799.49 4.21147 1793.55 6.31126Z" fill="#3D3D3D"/>
<path d="M2224.53 5.61186L2187.43 5.96182L2187.78 138.598L2188.3 271.06H2228.55H2268.8L2269.32 217.165C2269.67 166.42 2269.85 163.446 2273 163.446C2274.75 163.446 2277.55 165.196 2279.47 167.12C2283.14 171.32 2321.64 205.441 2364.16 242.188C2379.03 255.136 2391.63 266.16 2392.16 266.685C2395.66 271.41 2403.36 271.935 2459.35 271.935C2505.9 271.935 2518.15 271.41 2518.15 269.66C2518.15 267.21 2383.06 158.546 2361.01 143.323C2352.61 137.548 2346.66 132.299 2346.66 130.549C2346.66 128.799 2351.39 124.6 2357.69 120.75C2376.24 109.026 2507.47 10.5114 2507.65 8.06161C2507.65 6.48677 2494.87 5.96182 2449.73 5.96182H2391.81L2379.21 16.8107C2372.21 22.9351 2355.24 37.2836 2341.41 48.8324C2327.59 60.3812 2306.59 78.2294 2294.69 88.5534C2282.97 99.0523 2272.47 107.451 2271.6 107.451C2270.2 107.451 2269.67 91.3531 2269.67 56.8816V6.31179L2265.82 5.78684C2263.55 5.43688 2245 5.26189 2224.53 5.61186Z" fill="#3D3D3D"/>
<path d="M637.088 25.7348L597.717 45.3328L597.192 154.697C597.017 214.89 597.192 265.81 597.717 267.91L598.592 271.935H638.663C673.484 271.935 678.908 271.585 679.783 269.135C680.308 267.56 680.833 242.888 680.833 214.015C680.833 185.318 681.358 161.696 681.883 161.696C682.583 161.696 709.88 184.968 712.33 187.768C712.855 188.468 724.579 198.617 738.577 210.691C752.576 222.59 764.3 232.914 764.825 233.613C765.35 234.138 775.499 243.063 787.397 253.386L809.095 271.935H868.414C924.058 271.935 927.558 271.76 927.558 268.785C927.558 267.035 923.533 262.661 918.459 258.811C913.384 255.136 905.685 249.012 901.311 245.512C879.613 227.314 793.172 159.071 776.898 147.172C766.574 139.823 757.825 132.649 757.3 131.249C756.775 129.849 762.2 124.95 772.349 117.95C798.771 99.7522 918.809 9.28646 918.809 7.53664C918.809 6.66173 895.011 5.9618 860.715 5.9618H802.446L786.522 19.6104C777.773 26.9597 756.251 45.3328 738.402 60.2062C720.729 75.0797 700.956 92.403 694.482 98.5273C687.833 104.652 682.058 109.201 681.533 108.676C681.008 108.151 680.308 85.0537 680.308 57.4065C680.133 25.5598 679.258 7.01169 678.209 6.66173C677.334 6.48675 658.786 15.0609 637.088 25.7348Z" fill="#3D3D3D"/>
<path d="M2550.87 7.01171C2550.17 7.71164 2549.64 66.6806 2549.64 138.073C2549.64 236.588 2550.17 268.26 2551.74 269.835C2553.32 271.41 2564.87 271.935 2592.86 271.935C2631.88 271.935 2631.88 271.935 2632.76 267.91C2633.28 265.81 2633.46 206.141 2633.28 135.449L2632.76 6.83673L2592.34 6.31179C2570.12 6.1368 2551.57 6.48677 2550.87 7.01171Z" fill="#3D3D3D"/>
<path d="M1485.75 340.527C1482.6 342.802 1472.63 354.701 1463.7 367.299C1454.78 379.723 1445.15 393.372 1442.18 397.396C1425.73 419.969 1415.76 435.017 1416.63 436.592C1417.33 437.467 1425.03 438.167 1434.13 438.167H1450.4L1471.4 408.77C1482.95 392.672 1493.62 378.323 1495.02 377.273C1497.3 375.348 1498.35 375.873 1501.85 380.773C1504.12 383.923 1509.37 391.097 1513.57 396.696C1517.6 402.296 1520.57 408.07 1520.05 409.47C1519.35 411.395 1515.15 411.92 1501.5 411.92C1484.88 411.92 1483.65 412.27 1479.8 416.294C1471.75 424.868 1465.8 434.667 1467.73 436.592C1468.78 437.642 1489.6 437.992 1522.67 437.817C1570.09 437.292 1575.87 436.942 1575.69 434.492C1575.52 432.918 1561.52 411.57 1544.54 386.897C1512 340.177 1508.67 336.677 1496.6 336.677C1493.8 336.677 1488.9 338.427 1485.75 340.527Z" fill="#3D3D3D"/>
<path d="M1894.33 337.553C1893.46 337.728 1887.86 339.128 1882.09 340.352C1856.36 345.777 1843.06 360.125 1841.32 384.098C1839.74 405.796 1848.49 422.419 1865.64 431.343C1887.51 442.367 1941.4 442.542 1963.1 431.343C1977.45 423.819 1987.95 405.796 1987.95 387.948C1987.95 378.499 1982.35 362.05 1977.1 356.276C1965.38 343.677 1942.28 336.678 1913.58 336.853C1903.96 336.853 1895.38 337.203 1894.33 337.553ZM1944.38 366.95C1960.83 374.299 1960.3 404.046 1943.5 409.645C1925.31 415.77 1903.61 415.945 1885.59 409.82C1873.69 405.971 1868.79 389.522 1875.26 375.874C1878.41 369.224 1881.21 367.3 1891.18 364.675C1901.33 362.225 1936.86 363.625 1944.38 366.95Z" fill="#3D3D3D"/>
<path d="M2380.78 340.003C2365.56 343.852 2358.91 347.177 2351.39 355.051C2336.69 370.274 2335.81 401.421 2349.64 419.969C2361.89 436.418 2404.06 444.467 2440.28 437.468C2471.78 431.518 2485.42 416.47 2485.42 388.298C2485.42 360.825 2474.23 347.877 2443.78 340.003C2427.68 335.803 2397.76 335.803 2380.78 340.003ZM2443.25 367.3C2453.58 372.374 2457.78 386.373 2452.7 398.447C2449.2 407.021 2445 409.645 2429.78 412.795C2406.86 417.52 2380.78 412.795 2374.66 402.646C2369.94 395.122 2370.11 381.823 2374.66 374.124C2380.26 365.2 2389.53 362.925 2417.53 363.625C2431.88 363.975 2438.35 365.025 2443.25 367.3Z" fill="#3D3D3D"/>
<path d="M1578.67 341.752C1576.57 345.602 1576.22 390.222 1578.32 404.396C1581.64 427.493 1605.09 440.092 1644.98 439.917C1671.41 439.742 1691.36 433.268 1699.75 422.069C1707.1 412.445 1708.15 404.746 1707.63 370.799L1707.1 339.302L1693.98 338.778C1683.13 338.428 1680.51 338.778 1678.76 341.227C1677.18 343.502 1676.48 352.601 1676.48 373.424C1676.48 407.37 1676.13 408.07 1659.51 412.97C1643.76 417.519 1614.19 412.795 1610.69 405.271C1609.99 403.696 1608.94 388.122 1608.41 370.799L1607.36 339.302L1593.89 338.778C1581.99 338.428 1580.24 338.603 1578.67 341.752Z" fill="#3D3D3D"/>
<path d="M1728.28 348.227C1715.68 363.625 1716.38 364.5 1740.88 365.025L1761.35 365.55L1762.22 401.421L1763.1 437.292H1777.97H1792.85L1793.37 403.346C1793.55 381.823 1794.42 368.525 1795.65 366.95C1797.04 365.375 1802.29 364.675 1812.79 364.675C1829.59 364.675 1829.94 364.5 1839.74 352.076C1851.11 337.728 1853.56 338.428 1791.27 338.428H1736.33L1728.28 348.227Z" fill="#3D3D3D"/>
<path d="M2079.82 341.052C2064.77 345.251 2054.09 361.525 2057.77 374.648C2063.72 395.121 2071.42 398.096 2121.64 399.496C2152.78 400.371 2156.63 400.896 2158.38 403.695C2159.96 406.32 2159.61 407.37 2156.98 409.47C2154.18 411.395 2145.78 411.92 2115.51 411.92C2094.51 411.92 2076.32 412.445 2074.74 412.97C2071.07 414.369 2057.94 431.868 2057.94 435.367C2057.94 438.167 2061.62 438.342 2112.71 437.817C2165.38 437.292 2167.48 437.117 2173.43 433.442C2186.2 425.568 2188.3 421.894 2188.3 406.67C2188.3 391.097 2186.2 387.422 2174.31 381.998C2168.18 379.198 2162.41 378.673 2130.21 378.673C2098.89 378.673 2092.76 378.323 2090.49 375.873C2086.81 372.199 2086.99 368.699 2091.01 366.424C2093.11 365.374 2108.86 364.674 2130.04 364.674C2149.63 364.674 2166.61 363.975 2167.66 363.275C2171.16 361 2183.93 343.327 2183.93 340.702C2183.93 337.377 2092.24 337.727 2079.82 341.052Z" fill="#3D3D3D"/>
<path d="M2204.05 340.702C2203.53 341.927 2203.35 364.15 2203.53 390.047L2204.05 437.292H2218.93H2233.8L2234.32 419.444C2234.85 397.921 2232.4 399.321 2267.05 400.021L2291.54 400.546L2292.07 416.994C2292.24 426.093 2293.47 434.667 2294.52 435.892C2295.92 437.642 2300.29 438.167 2309.74 437.817L2323.04 437.292V388.297V339.302L2310.09 338.777C2302.39 338.427 2296.44 338.952 2295.22 340.177C2294.17 341.227 2292.94 348.926 2292.42 357.325L2291.54 372.549H2263.55H2235.55L2235.02 359.425C2234.32 337.552 2235.02 338.427 2218.75 338.427C2209.13 338.427 2204.58 339.127 2204.05 340.702Z" fill="#3D3D3D"/>
<path d="M2513.25 348.576C2498.72 365.374 2497.32 364.675 2547.02 364.675C2581.31 364.675 2591.11 365.199 2594.96 367.299C2603.89 371.849 2603.89 380.248 2595.14 384.797C2591.11 386.897 2581.66 387.422 2546.49 387.422C2508.17 387.422 2502.57 387.772 2501.7 390.222C2501.17 391.797 2500.65 401.946 2500.65 412.795C2500.65 423.643 2501.17 433.792 2501.7 435.367C2503.1 439.042 2527.24 439.392 2530.04 435.892C2531.09 434.667 2532.14 429.418 2532.49 424.168L2533.02 414.544L2564.52 413.32C2581.84 412.795 2599.16 411.57 2603.01 410.695C2614.56 408.07 2624.36 400.721 2629.26 390.922C2634.51 380.598 2634.86 372.899 2630.31 362.575C2626.28 353.301 2621.21 348.576 2610.01 343.327C2601.79 339.652 2598.64 339.302 2561.72 338.777L2522.17 338.077L2513.25 348.576Z" fill="#3D3D3D"/>
</svg>
