<svg width="2007" height="336" viewBox="0 0 2007 336" fill="none" xmlns="http://www.w3.org/2000/svg">
<path d="M146.565 0.706967C128.927 2.9911 114.334 7.05178 99.3599 13.6504C96.4413 15.0462 93.7765 16.0614 93.3958 16.0614C93.0151 16.0614 88.3199 18.7262 82.8634 22.0255C68.9048 30.4007 54.4386 41.4407 53.2966 44.6131C52.1545 47.6586 53.8041 75.0682 55.8345 86.4888C61.6717 118.594 77.9144 139.531 100.629 144.227C112.557 146.638 111.923 148.16 111.288 116.69C110.527 78.7482 109.512 72.1496 100.756 43.0903C97.0758 31.4159 97.2027 27.8628 100.883 28.4972C108.496 29.7662 126.135 46.8972 131.845 58.4448C138.952 73.1647 139.84 79.3826 139.332 113.137L138.952 143.592L142.124 143.973C147.454 144.607 154.052 148.034 156.59 151.46C160.016 156.028 160.651 164.403 158.113 169.479C155.702 174.047 151.768 175.951 144.662 175.951C140.094 175.951 139.586 176.204 138.952 180.265C138.444 182.549 138.825 192.067 139.586 201.33C140.601 212.624 140.601 218.588 139.84 219.349C137.556 221.633 131.972 219.222 126.389 213.512C119.156 206.406 114.334 195.62 112.176 182.549C111.669 179.504 110.654 177.22 109.765 177.22C107.354 177.22 96.4413 186.102 82.4827 199.173C55.9614 224.171 45.5559 229.628 31.7242 226.075C23.7297 224.044 14.7201 220.111 10.9132 217.192C6.85252 214.02 6.21804 216.811 9.00976 224.806C19.9228 255.895 44.4138 287.366 72.4579 306.146C91.2385 318.709 109.385 326.45 133.241 332.287C142.758 334.571 189.456 334.571 199.862 332.287C213.186 329.241 231.205 323.023 241.737 317.821C280.568 298.532 312.292 262.494 325.997 222.141C327.392 218.08 328.281 214.4 327.9 214.146C327.646 213.893 325.108 215.162 322.317 217.065C310.135 225.06 296.937 227.978 286.532 224.933C278.284 222.522 269.782 216.177 250.62 198.158C242.499 190.417 234.885 183.691 233.743 183.057C232.601 182.422 231.332 181.534 230.951 181.027C230.063 179.758 224.987 177.22 223.464 177.22C222.703 177.22 221.815 179.377 221.434 181.915C220.038 190.417 215.597 202.853 212.044 207.675C207.729 213.766 199.1 220.364 195.42 220.364C192.502 220.364 192.502 220.238 193.644 210.466C194.151 205.137 194.659 195.239 194.659 188.64L194.786 176.585L187.807 175.697C181.969 175.062 180.193 174.174 177.401 170.748C168.772 160.469 177.02 144.227 190.979 144.227H195.674L194.786 117.198C193.517 78.2406 195.42 67.0737 206.333 50.7041C213.313 40.2986 231.332 25.9593 234.758 28.1166C236.281 29.0048 235.393 37.6338 233.362 41.4407C230.698 46.6434 226.51 63.1399 224.48 76.9716C222.957 86.6157 222.195 141.181 223.464 143.211C224.86 145.496 237.423 143.592 244.529 140.039C256.584 133.821 265.34 123.416 271.304 108.061C278.03 90.6764 279.553 82.0475 279.679 61.1096L279.806 42.0751L270.924 35.3496C249.605 19.2338 227.652 8.82833 202.527 3.24489C189.837 0.453175 159.636 -0.942684 146.565 0.706967ZM121.947 223.537C126.262 225.821 130.703 232.293 130.703 236.48C130.703 238.003 129.307 240.922 127.531 242.952C119.156 252.977 127.023 266.682 148.469 278.99C156.844 283.813 158.874 284.447 165.6 284.447C172.071 284.447 174.736 283.559 182.604 279.371C187.807 276.579 195.42 271.123 199.608 267.316C206.207 261.098 207.095 259.702 207.729 254.246C208.364 249.17 207.856 247.52 204.938 243.079C200.75 236.607 201.258 234.069 208.11 227.344C212.678 222.775 213.947 222.268 219.531 222.268C224.606 222.268 226.383 222.902 229.682 226.075C236.789 232.8 239.2 238.764 239.2 250.185C239.2 259.195 238.692 261.225 234.885 268.585C226.383 285.208 207.349 299.675 185.903 306.019C165.727 312.11 139.332 306.527 118.394 291.807C102.786 280.894 93.9034 265.413 93.9034 248.789C93.9034 230.135 108.75 216.811 121.947 223.537Z" fill="#E81F25"/>
<path d="M22.4606 81.6663C15.862 92.0718 9.39032 107.426 5.32964 122.019C0.761377 138.389 0 142.957 0 152.347C0 170.494 11.8014 190.543 25.1255 194.858C34.8965 198.157 43.5254 192.193 50.3778 177.346C54.5654 168.21 63.0674 156.027 66.7474 153.997C69.666 152.347 68.9047 150.825 61.0371 141.942C56.8495 137.247 51.393 130.394 48.8551 126.588C42.5102 117.324 33.7544 98.6704 30.3282 86.7421C28.6786 81.4125 26.902 76.9711 26.3944 76.9711C25.8868 76.9711 24.1103 79.1284 22.4606 81.6663Z" fill="#E81F25"/>
<path d="M306.454 78.3675C305.947 79.002 304.297 83.824 302.647 88.8999C295.795 110.599 283.486 131.41 269.4 145.115C267.116 147.272 265.213 149.683 265.213 150.445C265.213 151.206 267.751 154.251 270.796 157.424C274.223 160.723 278.537 167.449 281.836 174.047C290.592 192.32 296.176 196.635 307.85 194.351C314.322 193.209 323.078 184.58 328.407 174.047C332.849 165.418 332.975 164.657 333.102 151.206C333.102 143.465 332.468 134.963 331.58 132.171C330.691 129.38 328.788 122.781 327.392 117.578C324.727 107.807 310.134 76.9716 308.358 76.9716C307.723 76.9716 306.835 77.6061 306.454 78.3675Z" fill="#E81F25"/>
<path d="M868.517 3.74286C855.317 9.87619 848.25 18.2762 808.917 74.5429C803.85 81.8762 797.984 90.0095 796.117 92.5429C794.117 95.0762 788.117 103.476 782.784 111.21C777.317 118.943 769.317 130.276 764.784 136.543C757.317 146.81 719.05 200.41 710.65 212.276C708.784 215.076 703.584 222.276 699.317 228.543C688.784 243.343 678.917 257.21 668.384 271.476C663.584 278.01 660.117 284.143 660.384 285.476C660.784 287.743 663.45 287.876 693.45 288.276C711.45 288.41 727.45 288.276 729.05 287.876C732.117 287.21 738.517 278.81 785.584 212.543C794.65 199.743 803.05 188.01 804.117 186.276C806.65 182.41 846.25 126.943 855.984 113.61C860.117 107.876 868.117 96.6762 873.984 88.5429C885.85 71.8762 885.05 72.0095 893.317 84.5429C895.984 88.5429 904.117 100.543 911.45 111.21C918.65 121.876 927.85 135.21 931.717 140.943C935.584 146.676 938.784 151.876 938.784 152.676C938.784 153.343 922.517 153.876 897.717 153.876H856.65L853.317 157.476C849.184 162.01 822.384 198.676 820.384 202.676C819.584 204.276 819.317 205.876 819.717 206.41C820.117 206.81 872.384 207.21 935.717 207.21C1039.98 207.21 1050.78 207.076 1050.78 205.076C1050.78 203.21 1045.45 195.076 1024.25 164.543C1010.12 144.143 994.25 121.076 973.717 91.2095C924.25 19.4762 921.85 16.1429 912.784 9.07619C904.65 2.80952 897.45 0.542856 885.717 0.542856C877.717 0.542856 873.984 1.20952 868.517 3.74286Z" fill="white"/>
<path d="M1079.18 5.3428C1077.58 6.40946 1078.25 7.87613 1083.05 13.7428C1086.12 17.7428 1090.65 23.2095 1092.78 25.8761C1095.05 28.6761 1101.45 36.6761 1107.18 43.7428L1117.45 56.5428H1188.12C1248.92 56.5428 1259.45 56.8095 1263.85 58.6761C1274.92 63.0761 1274.92 76.6761 1263.85 81.0761C1259.45 82.9428 1246.92 83.2095 1168.38 83.2095C1099.85 83.2095 1077.58 83.6095 1076.38 84.8095C1075.18 86.0095 1074.78 101.076 1074.78 144.676C1074.78 176.809 1075.18 203.876 1075.58 205.076C1076.38 206.943 1085.85 207.209 1169.32 207.209C1264.38 207.209 1278.78 206.543 1294.12 201.876C1315.72 195.209 1326.25 186.676 1332.38 170.676C1334.92 163.876 1335.45 160.143 1335.32 147.876C1335.32 135.609 1334.78 132.143 1332.25 126.809C1328.38 118.543 1321.32 110.676 1313.72 106.276L1307.72 102.676L1311.58 99.6095C1319.98 92.6761 1324.12 87.7428 1327.58 80.6761C1330.78 74.0095 1331.18 71.7428 1331.18 59.2095C1331.32 45.7428 1331.05 44.6761 1326.78 36.8095C1321.45 26.8095 1312.78 18.6761 1301.98 13.3428C1285.45 5.20946 1288.38 5.47613 1180.25 4.67613C1111.98 4.1428 1080.38 4.27613 1079.18 5.3428ZM1268.92 131.343C1273.98 136.543 1274.12 144.543 1269.05 149.476L1265.45 153.209L1205.05 153.609C1171.98 153.876 1143.45 153.609 1141.85 153.209C1138.92 152.543 1138.78 151.876 1138.78 140.676C1138.78 134.276 1139.18 128.543 1139.72 128.009C1140.25 127.476 1168.78 127.343 1203.05 127.476L1265.45 127.876L1268.92 131.343Z" fill="white"/>
<path d="M1366.65 4.80949C1364.25 5.74283 1364.12 7.60949 1364.12 62.2762C1364.12 120.143 1365.05 134.543 1369.45 149.21C1373.85 163.61 1381.72 174.81 1393.85 184.01C1408.38 194.943 1423.45 200.943 1449.45 206.143C1461.58 208.543 1468.38 208.943 1501.45 209.076C1533.58 209.076 1541.05 208.81 1550.12 206.676C1597.05 196.143 1619.85 177.61 1628.25 143.21C1630.52 134.143 1630.78 126.943 1630.78 69.6095C1630.78 34.6762 1630.25 5.74283 1629.58 5.34283C1629.05 4.94283 1615.18 4.54283 1598.78 4.54283C1575.58 4.40949 1568.78 4.80949 1567.98 6.14283C1567.32 7.07616 1566.78 35.6095 1566.78 69.6095C1566.78 128.276 1566.65 131.61 1564.12 136.41C1560.38 144.01 1551.98 150.41 1541.72 153.876C1533.32 156.676 1530.65 156.81 1499.18 156.676C1470.12 156.676 1464.38 156.276 1456.12 154.01C1445.18 150.943 1436.12 146.01 1433.18 141.61C1428.12 133.743 1427.85 129.876 1427.85 68.0095C1427.98 34.9428 1427.58 7.20949 1427.05 6.27616C1425.85 4.40949 1371.18 3.20949 1366.65 4.80949Z" fill="white"/>
<path d="M1695.05 4.27613L1666.78 4.5428L1667.05 105.609L1667.45 206.543H1698.12H1728.78L1729.18 165.476C1729.45 126.809 1729.58 124.543 1731.98 124.543C1733.32 124.543 1735.45 125.876 1736.92 127.343C1739.72 130.543 1769.05 156.543 1801.45 184.543C1812.78 194.409 1822.38 202.809 1822.78 203.209C1825.45 206.809 1831.32 207.209 1873.98 207.209C1909.45 207.209 1918.78 206.809 1918.78 205.476C1918.78 203.609 1815.85 120.809 1799.05 109.209C1792.65 104.809 1788.12 100.809 1788.12 99.4761C1788.12 98.1428 1791.72 94.9428 1796.52 92.0095C1810.65 83.0761 1910.65 8.00946 1910.78 6.1428C1910.78 4.9428 1901.05 4.5428 1866.65 4.5428H1822.52L1812.92 12.8095C1807.58 17.4761 1794.65 28.4095 1784.12 37.2095C1773.58 46.0095 1757.58 59.6095 1748.52 67.4761C1739.58 75.4761 1731.58 81.8761 1730.92 81.8761C1729.85 81.8761 1729.45 69.6095 1729.45 43.3428V4.80946L1726.52 4.40946C1724.78 4.1428 1710.65 4.00946 1695.05 4.27613Z" fill="white"/>
<path d="M485.45 19.6095L455.45 34.5428L455.05 117.876C454.917 163.743 455.05 202.543 455.45 204.143L456.117 207.209H486.65C513.183 207.209 517.317 206.943 517.983 205.076C518.383 203.876 518.783 185.076 518.783 163.076C518.783 141.209 519.183 123.209 519.583 123.209C520.117 123.209 540.917 140.943 542.783 143.076C543.183 143.609 552.117 151.343 562.783 160.543C573.45 169.609 582.383 177.476 582.783 178.009C583.183 178.409 590.917 185.209 599.983 193.076L616.517 207.209H661.717C704.117 207.209 706.783 207.076 706.783 204.809C706.783 203.476 703.717 200.143 699.85 197.209C695.983 194.409 690.117 189.743 686.783 187.076C670.25 173.209 604.383 121.209 591.983 112.143C584.117 106.543 577.45 101.076 577.05 100.009C576.65 98.9428 580.783 95.2095 588.517 89.8761C608.65 76.0095 700.117 7.07613 700.117 5.7428C700.117 5.07613 681.983 4.5428 655.85 4.5428H611.45L599.317 14.9428C592.65 20.5428 576.25 34.5428 562.65 45.8761C549.183 57.2095 534.117 70.4095 529.183 75.0761C524.117 79.7428 519.717 83.2095 519.317 82.8095C518.917 82.4095 518.383 64.8095 518.383 43.7428C518.25 19.4761 517.583 5.3428 516.783 5.07613C516.117 4.9428 501.983 11.4761 485.45 19.6095Z" fill="white"/>
<path d="M1943.72 5.3428C1943.18 5.87613 1942.78 50.8095 1942.78 105.209C1942.78 180.276 1943.18 204.409 1944.38 205.609C1945.58 206.809 1954.38 207.209 1975.72 207.209C2005.45 207.209 2005.45 207.209 2006.12 204.143C2006.52 202.543 2006.65 157.076 2006.52 103.209L2006.12 5.20946L1975.32 4.80946C1958.38 4.67613 1944.25 4.9428 1943.72 5.3428Z" fill="white"/>
<path d="M1132.12 259.476C1129.72 261.209 1122.12 270.276 1115.32 279.876C1108.52 289.343 1101.18 299.743 1098.92 302.809C1086.38 320.009 1078.78 331.476 1079.45 332.676C1079.98 333.343 1085.85 333.876 1092.78 333.876H1105.18L1121.18 311.476C1129.98 299.209 1138.12 288.276 1139.18 287.476C1140.92 286.009 1141.72 286.409 1144.38 290.143C1146.12 292.543 1150.12 298.009 1153.32 302.276C1156.38 306.543 1158.65 310.943 1158.25 312.009C1157.72 313.476 1154.52 313.876 1144.12 313.876C1131.45 313.876 1130.52 314.143 1127.58 317.209C1121.45 323.743 1116.92 331.209 1118.38 332.676C1119.18 333.476 1135.05 333.743 1160.25 333.609C1196.38 333.209 1200.78 332.943 1200.65 331.076C1200.52 329.876 1189.85 313.609 1176.92 294.809C1152.12 259.209 1149.58 256.543 1140.38 256.543C1138.25 256.543 1134.52 257.876 1132.12 259.476Z" fill="white"/>
<path d="M1443.45 257.21C1442.78 257.343 1438.52 258.41 1434.12 259.343C1414.52 263.476 1404.38 274.41 1403.05 292.676C1401.85 309.21 1408.52 321.876 1421.58 328.676C1438.25 337.076 1479.32 337.21 1495.85 328.676C1506.78 322.943 1514.78 309.21 1514.78 295.61C1514.78 288.41 1510.52 275.876 1506.52 271.476C1497.58 261.876 1479.98 256.543 1458.12 256.676C1450.78 256.676 1444.25 256.943 1443.45 257.21ZM1481.58 279.61C1494.12 285.21 1493.72 307.876 1480.92 312.143C1467.05 316.81 1450.52 316.943 1436.78 312.276C1427.72 309.343 1423.98 296.81 1428.92 286.41C1431.32 281.343 1433.45 279.876 1441.05 277.876C1448.78 276.01 1475.85 277.076 1481.58 279.61Z" fill="white"/>
<path d="M1814.12 259.076C1802.52 262.009 1797.45 264.543 1791.72 270.543C1780.52 282.143 1779.85 305.876 1790.38 320.009C1799.72 332.543 1831.85 338.676 1859.45 333.343C1883.45 328.809 1893.85 317.343 1893.85 295.876C1893.85 274.943 1885.32 265.076 1862.12 259.076C1849.85 255.876 1827.05 255.876 1814.12 259.076ZM1861.72 279.876C1869.58 283.743 1872.78 294.409 1868.92 303.609C1866.25 310.143 1863.05 312.143 1851.45 314.543C1833.98 318.143 1814.12 314.543 1809.45 306.809C1805.85 301.076 1805.98 290.943 1809.45 285.076C1813.72 278.276 1820.78 276.543 1842.12 277.076C1853.05 277.343 1857.98 278.143 1861.72 279.876Z" fill="white"/>
<path d="M1202.92 260.41C1201.32 263.343 1201.05 297.343 1202.65 308.143C1205.18 325.743 1223.05 335.343 1253.45 335.21C1273.58 335.076 1288.78 330.143 1295.18 321.61C1300.78 314.276 1301.58 308.41 1301.18 282.543L1300.78 258.543L1290.78 258.143C1282.52 257.876 1280.52 258.143 1279.18 260.01C1277.98 261.743 1277.45 268.676 1277.45 284.543C1277.45 310.41 1277.18 310.943 1264.52 314.676C1252.52 318.143 1229.98 314.543 1227.32 308.81C1226.78 307.61 1225.98 295.743 1225.58 282.543L1224.78 258.543L1214.52 258.143C1205.45 257.876 1204.12 258.01 1202.92 260.41Z" fill="white"/>
<path d="M1316.92 265.343C1307.32 277.076 1307.85 277.743 1326.52 278.143L1342.12 278.543L1342.78 305.876L1343.45 333.209H1354.78H1366.12L1366.52 307.343C1366.65 290.943 1367.32 280.809 1368.25 279.609C1369.32 278.409 1373.32 277.876 1381.32 277.876C1394.12 277.876 1394.38 277.743 1401.85 268.276C1410.52 257.343 1412.38 257.876 1364.92 257.876H1323.05L1316.92 265.343Z" fill="white"/>
<path d="M1584.78 259.876C1573.32 263.076 1565.18 275.476 1567.98 285.476C1572.52 301.076 1578.38 303.343 1616.65 304.41C1640.38 305.076 1643.32 305.476 1644.65 307.61C1645.85 309.61 1645.58 310.41 1643.58 312.01C1641.45 313.476 1635.05 313.876 1611.98 313.876C1595.98 313.876 1582.12 314.276 1580.92 314.676C1578.12 315.743 1568.12 329.076 1568.12 331.743C1568.12 333.876 1570.92 334.01 1609.85 333.61C1649.98 333.21 1651.58 333.076 1656.12 330.276C1665.85 324.276 1667.45 321.476 1667.45 309.876C1667.45 298.01 1665.85 295.21 1656.78 291.076C1652.12 288.943 1647.72 288.543 1623.18 288.543C1599.32 288.543 1594.65 288.276 1592.92 286.41C1590.12 283.61 1590.25 280.943 1593.32 279.21C1594.92 278.41 1606.92 277.876 1623.05 277.876C1637.98 277.876 1650.92 277.343 1651.72 276.81C1654.38 275.076 1664.12 261.61 1664.12 259.61C1664.12 257.076 1594.25 257.343 1584.78 259.876Z" fill="white"/>
<path d="M1679.45 259.61C1679.05 260.543 1678.92 277.476 1679.05 297.21L1679.45 333.21H1690.78H1702.12L1702.52 319.61C1702.92 303.21 1701.05 304.276 1727.45 304.81L1746.12 305.21L1746.52 317.743C1746.65 324.676 1747.58 331.21 1748.38 332.143C1749.45 333.476 1752.78 333.876 1759.98 333.61L1770.12 333.21V295.876V258.543L1760.25 258.143C1754.38 257.876 1749.85 258.276 1748.92 259.21C1748.12 260.01 1747.18 265.876 1746.78 272.276L1746.12 283.876H1724.78H1703.45L1703.05 273.876C1702.52 257.21 1703.05 257.876 1690.65 257.876C1683.32 257.876 1679.85 258.41 1679.45 259.61Z" fill="white"/>
<path d="M1915.05 265.61C1903.98 278.41 1902.92 277.876 1940.78 277.876C1966.92 277.876 1974.38 278.276 1977.32 279.876C1984.12 283.343 1984.12 289.743 1977.45 293.21C1974.38 294.81 1967.18 295.21 1940.38 295.21C1911.18 295.21 1906.92 295.476 1906.25 297.343C1905.85 298.543 1905.45 306.276 1905.45 314.543C1905.45 322.81 1905.85 330.543 1906.25 331.743C1907.32 334.543 1925.72 334.81 1927.85 332.143C1928.65 331.21 1929.45 327.21 1929.72 323.21L1930.12 315.876L1954.12 314.943C1967.32 314.543 1980.52 313.61 1983.45 312.943C1992.25 310.943 1999.72 305.343 2003.45 297.876C2007.45 290.01 2007.72 284.143 2004.25 276.276C2001.18 269.21 1997.32 265.61 1988.78 261.61C1982.52 258.81 1980.12 258.543 1951.98 258.143L1921.85 257.61L1915.05 265.61Z" fill="white"/>
</svg>
