<svg width="72" height="45" viewBox="0 0 72 45" fill="none" xmlns="http://www.w3.org/2000/svg">
<path d="M14.8831 41.2471C14.1779 41.3361 13.6392 41.7002 13.3575 42.2768C13.0906 42.8238 13.1004 43.4762 13.3838 44.0166C13.8204 44.842 14.8304 45.1913 15.926 44.8964C16.1764 44.8288 16.5405 44.6624 16.6575 44.5619C16.6838 44.5389 16.6855 44.4812 16.6855 43.7892V43.0429H16.2324H15.7793V43.5372V44.0314L15.7184 44.0578C15.5619 44.122 15.3823 44.1501 15.178 44.1418C14.8699 44.1286 14.6705 44.043 14.4794 43.842C14.2867 43.6393 14.2076 43.4251 14.2076 43.1088C14.2092 42.7859 14.29 42.5717 14.486 42.3757C14.6854 42.1763 14.9127 42.0873 15.2274 42.0873C15.552 42.0873 15.8172 42.1961 16.0611 42.4284L16.122 42.486L16.4449 42.1928C16.6229 42.033 16.7679 41.8962 16.7679 41.8896C16.7679 41.883 16.7135 41.827 16.6492 41.7644C16.3807 41.5107 16.038 41.3394 15.6558 41.2718C15.4811 41.2405 15.0445 41.2257 14.8831 41.2471Z" fill="white"/>
<path d="M61.8436 41.2554C61.1384 41.3559 60.5733 41.7678 60.3213 42.3642C60.2109 42.6261 60.1895 42.7497 60.1895 43.1171C60.1895 43.4104 60.1944 43.4631 60.229 43.5932C60.3213 43.9442 60.4547 44.1765 60.715 44.4351C60.9111 44.6295 61.0528 44.7267 61.2982 44.8322C61.9573 45.1172 62.8914 45.0332 63.5636 44.6295L63.6905 44.5521V43.7975V43.043H63.2374H62.7843L62.781 43.5405L62.7761 44.0397L62.636 44.0875C62.524 44.1254 62.4565 44.1369 62.3049 44.1435C61.9606 44.1583 61.7184 44.0727 61.5075 43.8601C61.3048 43.6575 61.2192 43.4318 61.2192 43.1089C61.2192 42.6294 61.4597 42.2736 61.8782 42.1368C61.9869 42.1006 62.0314 42.0956 62.2406 42.0956C62.4598 42.0956 62.4911 42.1006 62.6113 42.1418C62.7761 42.1994 62.9062 42.2785 63.0331 42.3971L63.1319 42.4877L63.1929 42.4301C63.2259 42.3988 63.3708 42.267 63.5142 42.1385C63.6559 42.0083 63.7728 41.8979 63.7728 41.8897C63.7728 41.8666 63.5191 41.636 63.4269 41.575C63.2077 41.43 62.9474 41.3262 62.6673 41.2719C62.4762 41.234 62.0446 41.2257 61.8436 41.2554Z" fill="white"/>
<path d="M7.31934 43.1023V44.9163H8.31445C9.23212 44.9163 9.32438 44.913 9.50067 44.8833C10.2734 44.7515 10.8039 44.2968 10.9983 43.6015C11.0279 43.4895 11.0329 43.4318 11.0329 43.1122C11.0329 42.7926 11.0279 42.7349 10.9983 42.6229C10.822 41.9935 10.359 41.5487 9.70332 41.3823C9.4117 41.3082 9.3458 41.3049 8.3128 41.2966L7.31934 41.2884V43.1023ZM9.30461 42.155C9.54845 42.2225 9.76922 42.3807 9.87631 42.5619C10.0625 42.8799 10.0575 43.3808 9.86313 43.6773C9.74286 43.8602 9.56657 43.9887 9.34086 44.0562C9.21565 44.0941 9.17446 44.0974 8.77411 44.1057L8.34081 44.1123V43.1122V42.1122L8.77411 42.1204C9.10856 42.1253 9.22718 42.1336 9.30461 42.155Z" fill="white"/>
<path d="M11.5869 43.104V44.9163H12.0976H12.6084V43.104V41.2917H12.0976H11.5869V43.104Z" fill="white"/>
<path d="M17.3447 43.1089V44.9211H17.8555H18.3662V43.1089V41.2966H17.8555H17.3447V43.1089Z" fill="white"/>
<path d="M18.7451 41.7085V42.1203H19.3053H19.8654V43.5207V44.9211H20.3762H20.8869V43.5207V42.1203H21.4388H21.9908V41.7085V41.2966H20.3679H18.7451V41.7085Z" fill="white"/>
<path d="M22.581 43.0807C22.1477 44.061 21.7902 44.8765 21.7836 44.893C21.7737 44.9193 21.8034 44.921 22.2977 44.9177L22.8216 44.9128L22.8842 44.7562C22.9188 44.6706 22.9814 44.5157 23.0226 44.4136L23.0984 44.229L23.8661 44.2323L24.6322 44.2373L24.769 44.575L24.9041 44.9128L25.4428 44.9177C25.7377 44.9193 25.9766 44.916 25.9733 44.9095C25.97 44.9012 25.6092 44.0857 25.171 43.0955L24.3736 41.2964H23.8711H23.3669L22.581 43.0807ZM24.0902 42.8813C24.2137 43.1861 24.3142 43.4432 24.3142 43.453C24.3142 43.4662 24.1726 43.4712 23.8612 43.4712C23.6124 43.4712 23.4081 43.4662 23.4081 43.458C23.4081 43.4432 23.8595 42.3195 23.8645 42.3228C23.8661 42.3245 23.9683 42.5766 24.0902 42.8813Z" fill="white"/>
<path d="M26.2744 43.1089V44.9211H27.6501H29.0258V44.5175V44.1139H28.1608H27.2959V42.7052V41.2966H26.7851H26.2744V43.1089Z" fill="white"/>
<path d="M30.9375 43.1089V44.9211H31.407H31.8766V44.0068C31.8766 43.5043 31.8815 43.0924 31.8898 43.0924C31.8964 43.0924 32.1056 43.4268 32.3544 43.8338L32.8075 44.5752H33.0381L33.2688 44.5735L33.7301 43.7975L34.1914 43.0199L34.1963 43.9705L34.1996 44.9211H34.6807H35.1601L35.1502 44.3C35.1437 43.959 35.1387 43.1435 35.1387 42.4877V41.2966L34.7153 41.2999L34.2919 41.3048L33.6856 42.3263C33.3511 42.8881 33.0727 43.3576 33.0645 43.3692C33.0562 43.384 32.8338 43.0331 32.417 42.3477L31.781 41.3048L31.3593 41.2999L30.9375 41.2966V43.1089Z" fill="white"/>
<path d="M36.2443 43.0955C35.8077 44.0857 35.4502 44.9012 35.4502 44.9095C35.4502 44.916 35.6841 44.9193 35.9708 44.9177L36.4914 44.9128L36.6282 44.575L36.7666 44.2373H37.5343H38.3021L38.4405 44.575L38.5772 44.9128L39.1143 44.9177C39.6234 44.921 39.6514 44.9193 39.6382 44.893C39.63 44.8765 39.2692 44.061 38.8342 43.079L38.0467 41.2964H37.5426H37.0384L36.2443 43.0955ZM37.7567 42.8698C37.877 43.168 37.9792 43.4267 37.9825 43.4415C37.9907 43.4695 37.961 43.4712 37.536 43.4712C37.2855 43.4712 37.0813 43.4662 37.0813 43.4596C37.0813 43.4432 37.531 42.3179 37.536 42.3228C37.5376 42.3245 37.6381 42.57 37.7567 42.8698Z" fill="white"/>
<path d="M39.9482 43.1072V44.9211H40.459H40.9697V44.4434V43.9656H41.2465H41.5233L41.8495 44.4434L42.1757 44.9211H42.7276H43.2779L43.1 44.6625C43.0028 44.5191 42.8298 44.2654 42.7145 44.0974L42.5069 43.7942L42.6222 43.7217C42.9879 43.4977 43.1774 43.1764 43.2054 42.7365C43.2433 42.1154 42.9237 41.631 42.3355 41.4218C42.0357 41.3147 41.9731 41.3097 40.9088 41.3015L39.9482 41.2933V43.1072ZM41.8627 42.1665C41.9747 42.2126 42.0802 42.3098 42.1279 42.4136C42.1576 42.4762 42.1642 42.5207 42.1625 42.6475C42.1609 42.8255 42.1395 42.8914 42.0456 42.9952C41.9154 43.1385 41.7704 43.1748 41.3042 43.1748H40.9697V42.6459V42.1187L41.3701 42.1236C41.7391 42.1286 41.7754 42.1319 41.8627 42.1665Z" fill="white"/>
<path d="M43.7705 43.1089V44.9211H44.2812H44.792V44.4714V44.0232L44.9814 43.8222L45.1709 43.6196L45.3571 43.8552C45.4592 43.9837 45.6899 44.277 45.8711 44.506L46.1973 44.9211H46.797H47.3967L47.3028 44.8009C46.9008 44.2868 45.8546 42.9227 45.8546 42.9112C45.8546 42.9029 46.1808 42.5438 46.5796 42.1121C46.9783 41.6804 47.3078 41.3196 47.3094 41.3114C47.3127 41.3032 47.0821 41.2966 46.7558 41.2966H46.1957L45.4971 42.0462L44.8002 42.7942L44.7953 42.0462L44.792 41.2966H44.2812H43.7705V43.1089Z" fill="white"/>
<path d="M47.6592 43.1089V44.9211H49.1172H50.5753V44.5257V44.1303H49.628H48.6807V43.8008V43.4713H49.4879H50.2952V43.0924V42.7134L49.4929 42.7102L48.6889 42.7052L48.6839 42.4037L48.6807 42.1039H49.595H50.5094V41.7002V41.2966H49.0843H47.6592V43.1089Z" fill="white"/>
<path d="M50.8066 41.7085V42.1203H51.3586H51.9105V43.5207V44.9211H52.4295H52.9484V43.5207V42.1203H53.5004H54.0523V41.7085V41.2966H52.4295H50.8066V41.7085Z" fill="white"/>
<path d="M54.4307 43.1089V44.9211H54.9414H55.4521V43.1089V41.2966H54.9414H54.4307V43.1089Z" fill="white"/>
<path d="M56.1934 43.1089V44.9211H56.6959H57.1984V43.9639V43.0084L57.9908 43.9639L58.7833 44.9211H59.21H59.6367V43.1089V41.2966H59.1342H58.6317L58.6284 42.2587L58.6235 43.2209L57.8261 42.2587L57.0303 41.2966H56.6118H56.1934V43.1089Z" fill="white"/>
<path d="M24.5703 0.00942612C23.4384 0.129696 22.4713 0.714573 21.8551 1.64872C21.5652 2.09026 21.3839 2.55981 21.2884 3.12327C21.262 3.28637 21.2587 3.5714 21.2554 7.86157L21.2505 12.4269L20.7183 12.1616C20.4267 12.015 20.0511 11.8371 19.8847 11.7662C17.5551 10.7777 15.0525 10.4284 12.5186 10.7349C9.04062 11.1566 5.77027 12.9096 3.46701 15.5869C1.60365 17.7517 0.435552 20.3812 0.09616 23.1738C0.0269636 23.7471 0.0104882 24.0189 0.00225054 24.7076C-0.00928219 25.6138 0.0220209 26.1509 0.130758 26.9301C0.519576 29.6996 1.69262 32.2385 3.58728 34.4017C3.83112 34.6818 4.57251 35.4182 4.86412 35.6719C7.08006 37.5996 9.70458 38.7726 12.5845 39.1202C13.1957 39.1944 13.5005 39.2109 14.2814 39.2109C15.1629 39.2125 15.578 39.1845 16.3639 39.0708C17.6259 38.8912 18.9258 38.5139 20.0923 37.9917C20.4333 37.8385 21.0627 37.5188 21.3724 37.3425C21.5157 37.2602 21.6344 37.1943 21.6377 37.1976C21.6393 37.2009 21.6541 37.2289 21.6706 37.2602C21.8535 37.6259 22.2225 38.0823 22.5702 38.3723C23.0101 38.7413 23.618 39.0346 24.1699 39.145C25.6576 39.4448 27.1454 38.8336 27.9757 37.5814C28.2986 37.0938 28.5079 36.5105 28.5655 35.9388C28.5787 35.8021 28.582 31.4197 28.5787 19.4833L28.5721 3.21388L28.5375 3.04089C28.4123 2.41647 28.2196 1.96835 27.8752 1.49221C27.7286 1.28791 27.4123 0.958408 27.2146 0.800243C26.7055 0.394951 26.1025 0.131344 25.4599 0.0341415C25.2622 0.00283813 24.7548 -0.0103416 24.5703 0.00942612ZM14.5763 17.9676C16.2156 18.0433 17.6852 18.6414 18.9209 19.7337C19.9605 20.6514 20.7167 21.9068 21.0511 23.2726C21.1994 23.8789 21.2423 24.2447 21.2423 24.9284C21.2423 25.4935 21.2241 25.7044 21.1418 26.1558C20.72 28.4673 19.1713 30.4081 17.013 31.3307C15.0096 32.1874 12.7146 32.0507 10.8216 30.9616C9.80837 30.3784 8.92035 29.5069 8.319 28.5035C7.76049 27.571 7.43428 26.5578 7.34366 25.4671C7.31565 25.1244 7.33378 24.3765 7.37826 24.047C7.55455 22.7372 8.04551 21.5905 8.87422 20.5509C9.07851 20.2939 9.60243 19.7634 9.84956 19.5624C11.077 18.564 12.5301 18.012 14.0672 17.9626C14.1447 17.9593 14.2155 17.956 14.2238 17.9544C14.2336 17.9527 14.3918 17.9593 14.5763 17.9676Z" fill="white"/>
<path d="M35.1315 5.33416C34.7278 5.37864 34.3242 5.49891 33.9453 5.68509C33.535 5.88608 33.2121 6.12003 32.9139 6.43142C32.3505 7.01794 32.0193 7.71485 31.9073 8.55179C31.876 8.79563 31.876 35.7163 31.9073 35.975C32.0506 37.1101 32.6833 38.1036 33.6322 38.6819C34.9272 39.4694 36.555 39.3903 37.7675 38.4792C38.5518 37.8894 39.0691 36.9833 39.196 35.975C39.2273 35.7163 39.2273 8.79563 39.196 8.55179C39.0839 7.71485 38.7528 7.01794 38.1893 6.43142C37.8911 6.12003 37.5682 5.88608 37.158 5.68509C36.7675 5.49232 36.3737 5.37864 35.9437 5.33251C35.7559 5.31109 35.3193 5.31274 35.1315 5.33416Z" fill="white"/>
<path d="M45.9143 10.6362C44.1448 10.7631 42.7115 12.1569 42.5368 13.923C42.5236 14.0532 42.5204 17.223 42.5236 25.0439C42.5286 35.4629 42.5302 35.9917 42.5582 36.14C42.7098 36.9473 43.0443 37.5997 43.583 38.1418C44.247 38.809 45.1103 39.1847 46.0543 39.216C46.6853 39.2374 47.2224 39.1237 47.7842 38.8519C48.9045 38.3082 49.6591 37.2571 49.8222 36.0165C49.8403 35.8814 49.8436 33.8598 49.8436 24.9038C49.8436 14.4058 49.842 13.9477 49.814 13.7665C49.6838 12.9493 49.3296 12.2491 48.7563 11.6824C48.0099 10.9443 46.972 10.5621 45.9143 10.6362Z" fill="white"/>
<path d="M56.4412 15.9592C55.7476 16.03 55.0573 16.315 54.5053 16.7599C53.7458 17.3727 53.2532 18.2937 53.1643 19.269C53.1395 19.5277 53.1395 35.6274 53.1626 35.8844C53.2648 36.9998 53.8612 37.9982 54.7937 38.616C55.7525 39.252 57.0014 39.397 58.0838 38.9983C59.3985 38.5122 60.3228 37.3161 60.4612 35.9174C60.4744 35.7889 60.4777 33.3653 60.4744 27.4573L60.4678 19.1784L60.4315 18.989C60.4118 18.8852 60.3755 18.7287 60.3524 18.643C60.0855 17.6561 59.3919 16.806 58.4743 16.3414C58.1134 16.1585 57.7592 16.0432 57.3638 15.9822C57.1529 15.9509 56.6554 15.9377 56.4412 15.9592Z" fill="white"/>
<path d="M67.1428 31.9008C66.843 31.9272 66.4047 32.0277 66.1411 32.1298C65.2482 32.4808 64.5562 33.1151 64.1509 33.957C63.8988 34.4776 63.7852 34.9768 63.7852 35.5551C63.7852 36.1449 63.9021 36.6457 64.1591 37.1697C64.4277 37.7117 64.7803 38.1417 65.2366 38.4811C65.9302 38.9951 66.7194 39.2439 67.5695 39.2159C68.1165 39.1978 68.5745 39.0824 69.0737 38.8386C69.6603 38.5519 70.1364 38.1318 70.4972 37.5832C70.9107 36.9555 71.1051 36.3047 71.1051 35.5501C71.1051 35.1267 71.0508 34.7807 70.9289 34.4133C70.4676 33.0212 69.2434 32.0442 67.7837 31.9058C67.6157 31.891 67.2928 31.8877 67.1428 31.9008ZM69.166 33.8087C69.2171 33.8219 69.3027 33.8548 69.3555 33.8812C69.4741 33.9405 69.6207 34.0706 69.5977 34.0937C69.5696 34.1217 67.7755 35.1531 67.6651 35.2058C67.5234 35.2717 67.39 35.2816 67.2598 35.2354C67.2071 35.2173 67.039 35.13 66.8858 35.041L66.609 34.8796L66.7326 34.8598C66.8018 34.8483 66.8891 34.8302 66.9287 34.817C66.9665 34.8038 67.3603 34.583 67.8018 34.3277C68.2434 34.0723 68.6256 33.8565 68.6487 33.8466C68.82 33.7823 69.0095 33.7675 69.166 33.8087ZM66.1625 33.8383C66.2219 33.8581 66.4756 33.9932 66.726 34.1382C67.1774 34.3985 67.1824 34.4018 67.1461 34.4298C67.0687 34.4908 66.7557 34.6374 66.6634 34.6572C66.5349 34.6852 66.3092 34.6703 66.2004 34.6275C66.0868 34.5847 65.2729 34.1151 65.2729 34.0937C65.2729 34.069 65.3849 33.9685 65.4706 33.9191C65.6765 33.7972 65.95 33.7642 66.1625 33.8383ZM66.1461 34.9109C66.7672 35.27 67.1 35.4727 67.1478 35.5188C67.1873 35.5567 67.2384 35.6292 67.2631 35.6786C67.3076 35.7676 67.3076 35.7742 67.3125 36.1564L67.3175 36.5419L67.2433 36.4414C67.2021 36.3854 67.1296 36.3113 67.0819 36.275C67.0341 36.2388 66.642 36.0065 66.212 35.7594C65.5167 35.359 65.4179 35.2964 65.3223 35.2009C65.146 35.0262 65.0636 34.8071 65.0801 34.5665C65.0851 34.4941 65.0982 34.41 65.1081 34.382C65.1262 34.331 65.1295 34.3293 65.1707 34.3507C65.1954 34.3639 65.6337 34.616 66.1461 34.9109ZM69.797 34.4545C69.8415 34.6456 69.8135 34.8433 69.713 35.0361C69.6141 35.2206 69.5318 35.2865 69.0128 35.5864L68.5432 35.8599L68.5383 35.6605C68.5333 35.4529 68.5531 35.331 68.6157 35.1943C68.6569 35.1004 68.7838 34.9339 68.853 34.8812C68.9255 34.8252 69.7591 34.3441 69.7674 34.3524C69.7723 34.3557 69.7855 34.4018 69.797 34.4545ZM68.4032 35.1679C68.3933 35.1877 68.3686 35.2453 68.3488 35.2964C68.3142 35.387 68.3126 35.4216 68.3043 36.4283C68.2945 37.4481 68.2945 37.4679 68.2582 37.5634C68.2071 37.7002 68.1363 37.8056 68.0226 37.9094C67.9205 38.005 67.7607 38.0923 67.6569 38.1104L67.5943 38.1203L67.5992 36.9621L67.6041 35.8022L67.642 35.7083C67.6997 35.5683 67.8002 35.4809 68.1248 35.2898C68.2829 35.1992 68.4131 35.1251 68.4164 35.1284C68.4197 35.13 68.4131 35.1481 68.4032 35.1679ZM66.9501 36.4975C67.0802 36.5897 67.1857 36.7215 67.2549 36.8813L67.3076 37.0049L67.3125 37.5601C67.3175 38.1911 67.3323 38.1401 67.1725 38.0824C66.9287 37.9918 66.7524 37.8105 66.665 37.5634C66.6255 37.4514 66.6239 37.4398 66.6239 36.8764V36.3014L66.7359 36.364C66.7968 36.397 66.8924 36.4579 66.9501 36.4975Z" fill="white"/>
</svg>
