<svg width="350" height="351" viewBox="0 0 350 351" fill="none" xmlns="http://www.w3.org/2000/svg">
<path d="M154 0.742853C135.466 3.14285 120.133 7.40952 104.4 14.3429C101.333 15.8095 98.5331 16.8762 98.1331 16.8762C97.7331 16.8762 92.7998 19.6762 87.0664 23.1429C72.3998 31.9429 57.1998 43.5429 55.9998 46.8762C54.7998 50.0762 56.5331 78.8762 58.6664 90.8762C64.7998 124.61 81.8664 146.61 105.733 151.543C118.266 154.076 117.6 155.676 116.933 122.61C116.133 82.7429 115.066 75.8095 105.866 45.2762C102 33.0095 102.133 29.2762 106 29.9429C114 31.2762 132.533 49.2762 138.533 61.4095C146 76.8762 146.933 83.4095 146.4 118.876L146 150.876L149.333 151.276C154.933 151.943 161.866 155.543 164.533 159.143C168.133 163.943 168.8 172.743 166.133 178.076C163.6 182.876 159.466 184.876 152 184.876C147.2 184.876 146.666 185.143 146 189.41C145.466 191.81 145.866 201.81 146.666 211.543C147.733 223.41 147.733 229.676 146.933 230.476C144.533 232.876 138.666 230.343 132.8 224.343C125.2 216.876 120.133 205.543 117.866 191.81C117.333 188.61 116.266 186.21 115.333 186.21C112.8 186.21 101.333 195.543 86.6664 209.276C58.7998 235.543 47.8664 241.276 33.3331 237.543C24.9331 235.41 15.4664 231.276 11.4664 228.21C7.19975 224.876 6.53309 227.81 9.46642 236.21C20.9331 268.876 46.6664 301.943 76.1331 321.676C95.8664 334.876 114.933 343.01 140 349.143C150 351.543 199.066 351.543 210 349.143C224 345.943 242.933 339.41 254 333.943C294.8 313.676 328.133 275.81 342.533 233.41C344 229.143 344.933 225.276 344.533 225.01C344.266 224.743 341.6 226.076 338.666 228.076C325.866 236.476 312 239.543 301.066 236.343C292.4 233.81 283.466 227.143 263.333 208.21C254.8 200.076 246.8 193.01 245.6 192.343C244.4 191.676 243.066 190.743 242.666 190.21C241.733 188.876 236.4 186.21 234.8 186.21C234 186.21 233.066 188.476 232.666 191.143C231.2 200.076 226.533 213.143 222.8 218.21C218.266 224.61 209.2 231.543 205.333 231.543C202.266 231.543 202.266 231.41 203.466 221.143C204 215.543 204.533 205.143 204.533 198.21L204.666 185.543L197.333 184.61C191.2 183.943 189.333 183.01 186.4 179.41C177.333 168.61 186 151.543 200.666 151.543H205.6L204.666 123.143C203.333 82.2095 205.333 70.4762 216.8 53.2762C224.133 42.3429 243.066 27.2762 246.666 29.5429C248.266 30.4762 247.333 39.5429 245.2 43.5429C242.4 49.0095 238 66.3429 235.866 80.8762C234.266 91.0095 233.466 148.343 234.8 150.476C236.266 152.876 249.466 150.876 256.933 147.143C269.6 140.61 278.8 129.676 285.066 113.543C292.133 95.2762 293.733 86.2095 293.866 64.2095L294 44.2095L284.666 37.1429C262.266 20.2095 239.2 9.27619 212.8 3.40952C199.466 0.476186 167.733 -0.990481 154 0.742853ZM128.133 234.876C132.666 237.276 137.333 244.076 137.333 248.476C137.333 250.076 135.866 253.143 134 255.276C125.2 265.81 133.466 280.21 156 293.143C164.8 298.21 166.933 298.876 174 298.876C180.8 298.876 183.6 297.943 191.866 293.543C197.333 290.61 205.333 284.876 209.733 280.876C216.666 274.343 217.6 272.876 218.266 267.143C218.933 261.81 218.4 260.076 215.333 255.41C210.933 248.61 211.466 245.943 218.666 238.876C223.466 234.076 224.8 233.543 230.666 233.543C236 233.543 237.866 234.21 241.333 237.543C248.8 244.61 251.333 250.876 251.333 262.876C251.333 272.343 250.8 274.476 246.8 282.21C237.866 299.676 217.866 314.876 195.333 321.543C174.133 327.943 146.4 322.076 124.4 306.61C108 295.143 98.6664 278.876 98.6664 261.41C98.6664 241.81 114.266 227.81 128.133 234.876Z" fill="#E81F25"/>
<path d="M23.6 85.8093C16.6667 96.7426 9.86667 112.876 5.6 128.209C0.8 145.409 0 150.209 0 160.076C0 179.143 12.4 200.209 26.4 204.743C36.6667 208.209 45.7333 201.943 52.9333 186.343C57.3333 176.743 66.2667 163.943 70.1333 161.809C73.2 160.076 72.4 158.476 64.1333 149.143C59.7333 144.209 54 137.009 51.3333 133.009C44.6667 123.276 35.4667 103.676 31.8667 91.1426C30.1333 85.5426 28.2667 80.8759 27.7333 80.8759C27.2 80.8759 25.3333 83.1426 23.6 85.8093Z" fill="#E81F25"/>
<path d="M321.999 82.3428C321.466 83.0095 319.733 88.0762 317.999 93.4095C310.799 116.209 297.866 138.076 283.066 152.476C280.666 154.743 278.666 157.276 278.666 158.076C278.666 158.876 281.333 162.076 284.533 165.409C288.133 168.876 292.666 175.943 296.133 182.876C305.333 202.076 311.199 206.609 323.466 204.209C330.266 203.009 339.466 193.943 345.066 182.876C349.733 173.809 349.866 173.009 349.999 158.876C349.999 150.743 349.333 141.809 348.399 138.876C347.466 135.943 345.466 129.009 343.999 123.543C341.199 113.276 325.866 80.8762 323.999 80.8762C323.333 80.8762 322.399 81.5428 321.999 82.3428Z" fill="#E81F25"/>
</svg>
