<svg width="1552" height="747" viewBox="0 0 1552 747" fill="none" xmlns="http://www.w3.org/2000/svg">
<path d="M1351.12 0.742853C1332.58 3.14285 1317.25 7.40952 1301.52 14.3429C1298.45 15.8095 1295.65 16.8762 1295.25 16.8762C1294.85 16.8762 1289.92 19.6762 1284.18 23.1429C1269.52 31.9429 1254.32 43.5429 1253.12 46.8762C1251.92 50.0762 1253.65 78.8762 1255.78 90.8762C1261.92 124.61 1278.98 146.61 1302.85 151.543C1315.38 154.076 1314.72 155.676 1314.05 122.61C1313.25 82.7429 1312.18 75.8095 1302.98 45.2762C1299.12 33.0095 1299.25 29.2762 1303.12 29.9429C1311.12 31.2762 1329.65 49.2762 1335.65 61.4095C1343.12 76.8762 1344.05 83.4095 1343.52 118.876L1343.12 150.876L1346.45 151.276C1352.05 151.943 1358.98 155.543 1361.65 159.143C1365.25 163.943 1365.92 172.743 1363.25 178.076C1360.72 182.876 1356.58 184.876 1349.12 184.876C1344.32 184.876 1343.78 185.143 1343.12 189.41C1342.58 191.81 1342.98 201.81 1343.78 211.543C1344.85 223.41 1344.85 229.676 1344.05 230.476C1341.65 232.876 1335.78 230.343 1329.92 224.343C1322.32 216.876 1317.25 205.543 1314.98 191.81C1314.45 188.61 1313.38 186.21 1312.45 186.21C1309.92 186.21 1298.45 195.543 1283.78 209.276C1255.92 235.543 1244.98 241.276 1230.45 237.543C1222.05 235.41 1212.58 231.276 1208.58 228.21C1204.32 224.876 1203.65 227.81 1206.58 236.21C1218.05 268.876 1243.78 301.943 1273.25 321.676C1292.98 334.876 1312.05 343.01 1337.12 349.143C1347.12 351.543 1396.18 351.543 1407.12 349.143C1421.12 345.943 1440.05 339.41 1451.12 333.943C1491.92 313.676 1525.25 275.81 1539.65 233.41C1541.12 229.143 1542.05 225.276 1541.65 225.01C1541.38 224.743 1538.72 226.076 1535.78 228.076C1522.98 236.476 1509.12 239.543 1498.18 236.343C1489.52 233.81 1480.58 227.143 1460.45 208.21C1451.92 200.076 1443.92 193.01 1442.72 192.343C1441.52 191.676 1440.18 190.743 1439.78 190.21C1438.85 188.876 1433.52 186.21 1431.92 186.21C1431.12 186.21 1430.18 188.476 1429.78 191.143C1428.32 200.076 1423.65 213.143 1419.92 218.21C1415.38 224.61 1406.32 231.543 1402.45 231.543C1399.38 231.543 1399.38 231.41 1400.58 221.143C1401.12 215.543 1401.65 205.143 1401.65 198.21L1401.78 185.543L1394.45 184.61C1388.32 183.943 1386.45 183.01 1383.52 179.41C1374.45 168.61 1383.12 151.543 1397.78 151.543H1402.72L1401.78 123.143C1400.45 82.2095 1402.45 70.4762 1413.92 53.2762C1421.25 42.3429 1440.18 27.2762 1443.78 29.5429C1445.38 30.4762 1444.45 39.5429 1442.32 43.5429C1439.52 49.0095 1435.12 66.3429 1432.98 80.8762C1431.38 91.0095 1430.58 148.343 1431.92 150.476C1433.38 152.876 1446.58 150.876 1454.05 147.143C1466.72 140.61 1475.92 129.676 1482.18 113.543C1489.25 95.2762 1490.85 86.2095 1490.98 64.2095L1491.12 44.2095L1481.78 37.1429C1459.38 20.2095 1436.32 9.27619 1409.92 3.40952C1396.58 0.476186 1364.85 -0.990481 1351.12 0.742853ZM1325.25 234.876C1329.78 237.276 1334.45 244.076 1334.45 248.476C1334.45 250.076 1332.98 253.143 1331.12 255.276C1322.32 265.81 1330.58 280.21 1353.12 293.143C1361.92 298.21 1364.05 298.876 1371.12 298.876C1377.92 298.876 1380.72 297.943 1388.98 293.543C1394.45 290.61 1402.45 284.876 1406.85 280.876C1413.78 274.343 1414.72 272.876 1415.38 267.143C1416.05 261.81 1415.52 260.076 1412.45 255.41C1408.05 248.61 1408.58 245.943 1415.78 238.876C1420.58 234.076 1421.92 233.543 1427.78 233.543C1433.12 233.543 1434.98 234.21 1438.45 237.543C1445.92 244.61 1448.45 250.876 1448.45 262.876C1448.45 272.343 1447.92 274.476 1443.92 282.21C1434.98 299.676 1414.98 314.876 1392.45 321.543C1371.25 327.943 1343.52 322.076 1321.52 306.61C1305.12 295.143 1295.78 278.876 1295.78 261.41C1295.78 241.81 1311.38 227.81 1325.25 234.876Z" fill="#E81F25"/>
<path d="M1220.72 85.8093C1213.78 96.7426 1206.98 112.876 1202.72 128.209C1197.92 145.409 1197.12 150.209 1197.12 160.076C1197.12 179.143 1209.52 200.209 1223.52 204.743C1233.78 208.209 1242.85 201.943 1250.05 186.343C1254.45 176.743 1263.38 163.943 1267.25 161.809C1270.32 160.076 1269.52 158.476 1261.25 149.143C1256.85 144.209 1251.12 137.009 1248.45 133.009C1241.78 123.276 1232.58 103.676 1228.98 91.1426C1227.25 85.5426 1225.38 80.8759 1224.85 80.8759C1224.32 80.8759 1222.45 83.1426 1220.72 85.8093Z" fill="#E81F25"/>
<path d="M1519.12 82.3428C1518.58 83.0095 1516.85 88.0762 1515.12 93.4095C1507.92 116.209 1494.98 138.076 1480.18 152.476C1477.78 154.743 1475.78 157.276 1475.78 158.076C1475.78 158.876 1478.45 162.076 1481.65 165.409C1485.25 168.876 1489.78 175.943 1493.25 182.876C1502.45 202.076 1508.32 206.609 1520.58 204.209C1527.38 203.009 1536.58 193.943 1542.18 182.876C1546.85 173.809 1546.98 173.009 1547.12 158.876C1547.12 150.743 1546.45 141.809 1545.52 138.876C1544.58 135.943 1542.58 129.009 1541.12 123.543C1538.32 113.276 1522.98 80.8762 1521.12 80.8762C1520.45 80.8762 1519.52 81.5428 1519.12 82.3428Z" fill="#E81F25"/>
<path d="M413.517 414.743C400.317 420.876 393.25 429.276 353.917 485.543C348.85 492.876 342.984 501.01 341.117 503.543C339.117 506.076 333.117 514.476 327.784 522.21C322.317 529.943 314.317 541.276 309.784 547.543C302.317 557.81 264.05 611.41 255.65 623.276C253.784 626.076 248.584 633.276 244.317 639.543C233.784 654.343 223.917 668.21 213.384 682.476C208.584 689.01 205.117 695.143 205.384 696.476C205.784 698.743 208.45 698.876 238.45 699.276C256.45 699.41 272.45 699.276 274.05 698.876C277.117 698.21 283.517 689.81 330.584 623.543C339.65 610.743 348.05 599.01 349.117 597.276C351.65 593.41 391.25 537.943 400.984 524.61C405.117 518.876 413.117 507.676 418.984 499.543C430.85 482.876 430.05 483.01 438.317 495.543C440.984 499.543 449.117 511.543 456.45 522.21C463.65 532.876 472.85 546.21 476.717 551.943C480.584 557.676 483.784 562.876 483.784 563.676C483.784 564.343 467.517 564.876 442.717 564.876H401.65L398.317 568.476C394.184 573.01 367.384 609.676 365.384 613.676C364.584 615.276 364.317 616.876 364.717 617.41C365.117 617.81 417.384 618.21 480.717 618.21C584.984 618.21 595.784 618.076 595.784 616.076C595.784 614.21 590.45 606.076 569.25 575.543C555.117 555.143 539.25 532.076 518.717 502.21C469.25 430.476 466.85 427.143 457.784 420.076C449.65 413.81 442.45 411.543 430.717 411.543C422.717 411.543 418.984 412.21 413.517 414.743Z" fill="white"/>
<path d="M624.183 416.343C622.583 417.409 623.25 418.876 628.05 424.743C631.117 428.743 635.65 434.209 637.783 436.876C640.05 439.676 646.45 447.676 652.183 454.743L662.45 467.543H733.117C793.917 467.543 804.45 467.809 808.85 469.676C819.917 474.076 819.917 487.676 808.85 492.076C804.45 493.943 791.917 494.209 713.383 494.209C644.85 494.209 622.583 494.609 621.383 495.809C620.183 497.009 619.783 512.076 619.783 555.676C619.783 587.809 620.183 614.876 620.583 616.076C621.383 617.943 630.85 618.209 714.317 618.209C809.383 618.209 823.783 617.543 839.117 612.876C860.717 606.209 871.25 597.676 877.383 581.676C879.917 574.876 880.45 571.143 880.317 558.876C880.317 546.609 879.783 543.143 877.25 537.809C873.383 529.543 866.317 521.676 858.717 517.276L852.717 513.676L856.583 510.609C864.983 503.676 869.117 498.743 872.583 491.676C875.783 485.009 876.183 482.743 876.183 470.209C876.317 456.743 876.05 455.676 871.783 447.809C866.45 437.809 857.783 429.676 846.983 424.343C830.45 416.209 833.383 416.476 725.25 415.676C656.983 415.143 625.383 415.276 624.183 416.343ZM813.917 542.343C818.983 547.543 819.117 555.543 814.05 560.476L810.45 564.209L750.05 564.609C716.983 564.876 688.45 564.609 686.85 564.209C683.917 563.543 683.783 562.876 683.783 551.676C683.783 545.276 684.183 539.543 684.717 539.009C685.25 538.476 713.783 538.343 748.05 538.476L810.45 538.876L813.917 542.343Z" fill="white"/>
<path d="M911.651 415.809C909.251 416.743 909.117 418.609 909.117 473.276C909.117 531.143 910.051 545.543 914.451 560.21C918.851 574.61 926.717 585.81 938.851 595.01C953.384 605.943 968.451 611.943 994.451 617.143C1006.58 619.543 1013.38 619.943 1046.45 620.076C1078.58 620.076 1086.05 619.81 1095.12 617.676C1142.05 607.143 1164.85 588.61 1173.25 554.21C1175.52 545.143 1175.78 537.943 1175.78 480.609C1175.78 445.676 1175.25 416.743 1174.58 416.343C1174.05 415.943 1160.18 415.543 1143.78 415.543C1120.58 415.409 1113.78 415.809 1112.98 417.143C1112.32 418.076 1111.78 446.609 1111.78 480.609C1111.78 539.276 1111.65 542.61 1109.12 547.41C1105.38 555.01 1096.98 561.41 1086.72 564.876C1078.32 567.676 1075.65 567.81 1044.18 567.676C1015.12 567.676 1009.38 567.276 1001.12 565.01C990.184 561.943 981.117 557.01 978.184 552.61C973.117 544.743 972.851 540.876 972.851 479.009C972.984 445.943 972.584 418.209 972.051 417.276C970.851 415.409 916.184 414.209 911.651 415.809Z" fill="white"/>
<path d="M1240.05 415.276L1211.78 415.543L1212.05 516.609L1212.45 617.543H1243.12H1273.78L1274.18 576.476C1274.45 537.809 1274.58 535.543 1276.98 535.543C1278.32 535.543 1280.45 536.876 1281.92 538.343C1284.72 541.543 1314.05 567.543 1346.45 595.543C1357.78 605.409 1367.38 613.809 1367.78 614.209C1370.45 617.809 1376.32 618.209 1418.98 618.209C1454.45 618.209 1463.78 617.809 1463.78 616.476C1463.78 614.609 1360.85 531.809 1344.05 520.209C1337.65 515.809 1333.12 511.809 1333.12 510.476C1333.12 509.143 1336.72 505.943 1341.52 503.009C1355.65 494.076 1455.65 419.009 1455.78 417.143C1455.78 415.943 1446.05 415.543 1411.65 415.543H1367.52L1357.92 423.809C1352.58 428.476 1339.65 439.409 1329.12 448.209C1318.58 457.009 1302.58 470.609 1293.52 478.476C1284.58 486.476 1276.58 492.876 1275.92 492.876C1274.85 492.876 1274.45 480.609 1274.45 454.343V415.809L1271.52 415.409C1269.78 415.143 1255.65 415.009 1240.05 415.276Z" fill="white"/>
<path d="M30.45 430.609L0.45 445.543L0.05 528.876C-0.0833333 574.743 0.05 613.543 0.45 615.143L1.11667 618.209H31.65C58.1833 618.209 62.3167 617.943 62.9833 616.076C63.3833 614.876 63.7833 596.076 63.7833 574.076C63.7833 552.209 64.1833 534.209 64.5833 534.209C65.1167 534.209 85.9167 551.943 87.7833 554.076C88.1833 554.609 97.1167 562.343 107.783 571.543C118.45 580.609 127.383 588.476 127.783 589.009C128.183 589.409 135.917 596.209 144.983 604.076L161.517 618.209H206.717C249.117 618.209 251.783 618.076 251.783 615.809C251.783 614.476 248.717 611.143 244.85 608.209C240.983 605.409 235.117 600.743 231.783 598.076C215.25 584.209 149.383 532.209 136.983 523.143C129.117 517.543 122.45 512.076 122.05 511.009C121.65 509.943 125.783 506.209 133.517 500.876C153.65 487.009 245.117 418.076 245.117 416.743C245.117 416.076 226.983 415.543 200.85 415.543H156.45L144.317 425.943C137.65 431.543 121.25 445.543 107.65 456.876C94.1833 468.209 79.1167 481.409 74.1833 486.076C69.1167 490.743 64.7167 494.209 64.3167 493.809C63.9167 493.409 63.3833 475.809 63.3833 454.743C63.25 430.476 62.5833 416.343 61.7833 416.076C61.1167 415.943 46.9833 422.476 30.45 430.609Z" fill="white"/>
<path d="M1488.72 416.343C1488.18 416.876 1487.78 461.809 1487.78 516.209C1487.78 591.276 1488.18 615.409 1489.38 616.609C1490.58 617.809 1499.38 618.209 1520.72 618.209C1550.45 618.209 1550.45 618.209 1551.12 615.143C1551.52 613.543 1551.65 568.076 1551.52 514.209L1551.12 416.209L1520.32 415.809C1503.38 415.676 1489.25 415.943 1488.72 416.343Z" fill="white"/>
<path d="M677.116 670.476C674.716 672.209 667.116 681.276 660.316 690.876C653.516 700.343 646.183 710.743 643.916 713.809C631.383 731.009 623.783 742.476 624.45 743.676C624.983 744.343 630.85 744.876 637.783 744.876H650.183L666.183 722.476C674.983 710.209 683.116 699.276 684.183 698.476C685.916 697.009 686.716 697.409 689.383 701.143C691.116 703.543 695.116 709.009 698.316 713.276C701.383 717.543 703.65 721.943 703.25 723.009C702.716 724.476 699.516 724.876 689.116 724.876C676.45 724.876 675.516 725.143 672.583 728.209C666.45 734.743 661.916 742.209 663.383 743.676C664.183 744.476 680.05 744.743 705.25 744.609C741.383 744.209 745.783 743.943 745.65 742.076C745.516 740.876 734.85 724.609 721.916 705.809C697.116 670.209 694.583 667.543 685.383 667.543C683.25 667.543 679.516 668.876 677.116 670.476Z" fill="white"/>
<path d="M988.45 668.21C987.783 668.343 983.517 669.41 979.117 670.343C959.517 674.476 949.383 685.41 948.05 703.676C946.85 720.21 953.517 732.876 966.583 739.676C983.25 748.076 1024.32 748.21 1040.85 739.676C1051.78 733.943 1059.78 720.21 1059.78 706.61C1059.78 699.41 1055.52 686.876 1051.52 682.476C1042.58 672.876 1024.98 667.543 1003.12 667.676C995.783 667.676 989.25 667.943 988.45 668.21ZM1026.58 690.61C1039.12 696.21 1038.72 718.876 1025.92 723.143C1012.05 727.81 995.517 727.943 981.783 723.276C972.717 720.343 968.983 707.81 973.917 697.41C976.317 692.343 978.45 690.876 986.05 688.876C993.783 687.01 1020.85 688.076 1026.58 690.61Z" fill="white"/>
<path d="M1359.12 670.076C1347.52 673.009 1342.45 675.543 1336.72 681.543C1325.52 693.143 1324.85 716.876 1335.38 731.009C1344.72 743.543 1376.85 749.676 1404.45 744.343C1428.45 739.809 1438.85 728.343 1438.85 706.876C1438.85 685.943 1430.32 676.076 1407.12 670.076C1394.85 666.876 1372.05 666.876 1359.12 670.076ZM1406.72 690.876C1414.58 694.743 1417.78 705.409 1413.92 714.609C1411.25 721.143 1408.05 723.143 1396.45 725.543C1378.98 729.143 1359.12 725.543 1354.45 717.809C1350.85 712.076 1350.98 701.943 1354.45 696.076C1358.72 689.276 1365.78 687.543 1387.12 688.076C1398.05 688.343 1402.98 689.143 1406.72 690.876Z" fill="white"/>
<path d="M747.917 671.41C746.317 674.343 746.05 708.343 747.65 719.143C750.183 736.743 768.05 746.343 798.45 746.21C818.583 746.076 833.783 741.143 840.183 732.61C845.783 725.276 846.583 719.41 846.183 693.543L845.783 669.543L835.783 669.143C827.517 668.876 825.517 669.143 824.183 671.01C822.983 672.743 822.45 679.676 822.45 695.543C822.45 721.41 822.183 721.943 809.517 725.676C797.517 729.143 774.983 725.543 772.317 719.81C771.783 718.61 770.983 706.743 770.583 693.543L769.783 669.543L759.517 669.143C750.45 668.876 749.117 669.01 747.917 671.41Z" fill="white"/>
<path d="M861.917 676.343C852.317 688.076 852.85 688.743 871.517 689.143L887.117 689.543L887.784 716.876L888.45 744.209H899.784H911.117L911.517 718.343C911.65 701.943 912.317 691.809 913.25 690.609C914.317 689.409 918.317 688.876 926.317 688.876C939.117 688.876 939.384 688.743 946.85 679.276C955.517 668.343 957.384 668.876 909.917 668.876H868.05L861.917 676.343Z" fill="white"/>
<path d="M1129.78 670.876C1118.32 674.076 1110.18 686.476 1112.98 696.476C1117.52 712.076 1123.38 714.343 1161.65 715.41C1185.38 716.076 1188.32 716.476 1189.65 718.61C1190.85 720.61 1190.58 721.41 1188.58 723.01C1186.45 724.476 1180.05 724.876 1156.98 724.876C1140.98 724.876 1127.12 725.276 1125.92 725.676C1123.12 726.743 1113.12 740.076 1113.12 742.743C1113.12 744.876 1115.92 745.01 1154.85 744.61C1194.98 744.21 1196.58 744.076 1201.12 741.276C1210.85 735.276 1212.45 732.476 1212.45 720.876C1212.45 709.01 1210.85 706.21 1201.78 702.076C1197.12 699.943 1192.72 699.543 1168.18 699.543C1144.32 699.543 1139.65 699.276 1137.92 697.41C1135.12 694.61 1135.25 691.943 1138.32 690.21C1139.92 689.41 1151.92 688.876 1168.05 688.876C1182.98 688.876 1195.92 688.343 1196.72 687.81C1199.38 686.076 1209.12 672.61 1209.12 670.61C1209.12 668.076 1139.25 668.343 1129.78 670.876Z" fill="white"/>
<path d="M1224.45 670.61C1224.05 671.543 1223.92 688.476 1224.05 708.21L1224.45 744.21H1235.78H1247.12L1247.52 730.61C1247.92 714.21 1246.05 715.276 1272.45 715.81L1291.12 716.21L1291.52 728.743C1291.65 735.676 1292.58 742.21 1293.38 743.143C1294.45 744.476 1297.78 744.876 1304.98 744.61L1315.12 744.21V706.876V669.543L1305.25 669.143C1299.38 668.876 1294.85 669.276 1293.92 670.21C1293.12 671.01 1292.18 676.876 1291.78 683.276L1291.12 694.876H1269.78H1248.45L1248.05 684.876C1247.52 668.21 1248.05 668.876 1235.65 668.876C1228.32 668.876 1224.85 669.41 1224.45 670.61Z" fill="white"/>
<path d="M1460.05 676.61C1448.98 689.41 1447.92 688.876 1485.78 688.876C1511.92 688.876 1519.38 689.276 1522.32 690.876C1529.12 694.343 1529.12 700.743 1522.45 704.21C1519.38 705.81 1512.18 706.21 1485.38 706.21C1456.18 706.21 1451.92 706.476 1451.25 708.343C1450.85 709.543 1450.45 717.276 1450.45 725.543C1450.45 733.81 1450.85 741.543 1451.25 742.743C1452.32 745.543 1470.72 745.81 1472.85 743.143C1473.65 742.21 1474.45 738.21 1474.72 734.21L1475.12 726.876L1499.12 725.943C1512.32 725.543 1525.52 724.61 1528.45 723.943C1537.25 721.943 1544.72 716.343 1548.45 708.876C1552.45 701.01 1552.72 695.143 1549.25 687.276C1546.18 680.21 1542.32 676.61 1533.78 672.61C1527.52 669.81 1525.12 669.543 1496.98 669.143L1466.85 668.61L1460.05 676.61Z" fill="white"/>
</svg>
