<svg width="1552" height="336" viewBox="0 0 1552 336" fill="none" xmlns="http://www.w3.org/2000/svg">
<path d="M413.517 3.74286C400.317 9.87619 393.25 18.2762 353.917 74.5429C348.85 81.8762 342.984 90.0095 341.117 92.5429C339.117 95.0762 333.117 103.476 327.784 111.21C322.317 118.943 314.317 130.276 309.784 136.543C302.317 146.81 264.05 200.41 255.65 212.276C253.784 215.076 248.584 222.276 244.317 228.543C233.784 243.343 223.917 257.21 213.384 271.476C208.584 278.01 205.117 284.143 205.384 285.476C205.784 287.743 208.45 287.876 238.45 288.276C256.45 288.41 272.45 288.276 274.05 287.876C277.117 287.21 283.517 278.81 330.584 212.543C339.65 199.743 348.05 188.01 349.117 186.276C351.65 182.41 391.25 126.943 400.984 113.61C405.117 107.876 413.117 96.6762 418.984 88.5429C430.85 71.8762 430.05 72.0095 438.317 84.5429C440.984 88.5429 449.117 100.543 456.45 111.21C463.65 121.876 472.85 135.21 476.717 140.943C480.584 146.676 483.784 151.876 483.784 152.676C483.784 153.343 467.517 153.876 442.717 153.876H401.65L398.317 157.476C394.184 162.01 367.384 198.676 365.384 202.676C364.584 204.276 364.317 205.876 364.717 206.41C365.117 206.81 417.384 207.21 480.717 207.21C584.984 207.21 595.784 207.076 595.784 205.076C595.784 203.21 590.45 195.076 569.25 164.543C555.117 144.143 539.25 121.076 518.717 91.2095C469.25 19.4762 466.85 16.1429 457.784 9.07619C449.65 2.80952 442.45 0.542856 430.717 0.542856C422.717 0.542856 418.984 1.20952 413.517 3.74286Z" fill="white"/>
<path d="M624.183 5.3428C622.583 6.40946 623.25 7.87613 628.05 13.7428C631.117 17.7428 635.65 23.2095 637.783 25.8761C640.05 28.6761 646.45 36.6761 652.183 43.7428L662.45 56.5428H733.117C793.917 56.5428 804.45 56.8095 808.85 58.6761C819.917 63.0761 819.917 76.6761 808.85 81.0761C804.45 82.9428 791.917 83.2095 713.383 83.2095C644.85 83.2095 622.583 83.6095 621.383 84.8095C620.183 86.0095 619.783 101.076 619.783 144.676C619.783 176.809 620.183 203.876 620.583 205.076C621.383 206.943 630.85 207.209 714.317 207.209C809.383 207.209 823.783 206.543 839.117 201.876C860.717 195.209 871.25 186.676 877.383 170.676C879.917 163.876 880.45 160.143 880.317 147.876C880.317 135.609 879.783 132.143 877.25 126.809C873.383 118.543 866.317 110.676 858.717 106.276L852.717 102.676L856.583 99.6095C864.983 92.6761 869.117 87.7428 872.583 80.6761C875.783 74.0095 876.183 71.7428 876.183 59.2095C876.317 45.7428 876.05 44.6761 871.783 36.8095C866.45 26.8095 857.783 18.6761 846.983 13.3428C830.45 5.20946 833.383 5.47613 725.25 4.67613C656.983 4.1428 625.383 4.27613 624.183 5.3428ZM813.917 131.343C818.983 136.543 819.117 144.543 814.05 149.476L810.45 153.209L750.05 153.609C716.983 153.876 688.45 153.609 686.85 153.209C683.917 152.543 683.783 151.876 683.783 140.676C683.783 134.276 684.183 128.543 684.717 128.009C685.25 127.476 713.783 127.343 748.05 127.476L810.45 127.876L813.917 131.343Z" fill="white"/>
<path d="M911.651 4.80949C909.251 5.74283 909.117 7.60949 909.117 62.2762C909.117 120.143 910.051 134.543 914.451 149.21C918.851 163.61 926.717 174.81 938.851 184.01C953.384 194.943 968.451 200.943 994.451 206.143C1006.58 208.543 1013.38 208.943 1046.45 209.076C1078.58 209.076 1086.05 208.81 1095.12 206.676C1142.05 196.143 1164.85 177.61 1173.25 143.21C1175.52 134.143 1175.78 126.943 1175.78 69.6095C1175.78 34.6762 1175.25 5.74283 1174.58 5.34283C1174.05 4.94283 1160.18 4.54283 1143.78 4.54283C1120.58 4.40949 1113.78 4.80949 1112.98 6.14283C1112.32 7.07616 1111.78 35.6095 1111.78 69.6095C1111.78 128.276 1111.65 131.61 1109.12 136.41C1105.38 144.01 1096.98 150.41 1086.72 153.876C1078.32 156.676 1075.65 156.81 1044.18 156.676C1015.12 156.676 1009.38 156.276 1001.12 154.01C990.184 150.943 981.117 146.01 978.184 141.61C973.117 133.743 972.851 129.876 972.851 68.0095C972.984 34.9428 972.584 7.20949 972.051 6.27616C970.851 4.40949 916.184 3.20949 911.651 4.80949Z" fill="white"/>
<path d="M1240.05 4.27613L1211.78 4.5428L1212.05 105.609L1212.45 206.543H1243.12H1273.78L1274.18 165.476C1274.45 126.809 1274.58 124.543 1276.98 124.543C1278.32 124.543 1280.45 125.876 1281.92 127.343C1284.72 130.543 1314.05 156.543 1346.45 184.543C1357.78 194.409 1367.38 202.809 1367.78 203.209C1370.45 206.809 1376.32 207.209 1418.98 207.209C1454.45 207.209 1463.78 206.809 1463.78 205.476C1463.78 203.609 1360.85 120.809 1344.05 109.209C1337.65 104.809 1333.12 100.809 1333.12 99.4761C1333.12 98.1428 1336.72 94.9428 1341.52 92.0095C1355.65 83.0761 1455.65 8.00946 1455.78 6.1428C1455.78 4.9428 1446.05 4.5428 1411.65 4.5428H1367.52L1357.92 12.8095C1352.58 17.4761 1339.65 28.4095 1329.12 37.2095C1318.58 46.0095 1302.58 59.6095 1293.52 67.4761C1284.58 75.4761 1276.58 81.8761 1275.92 81.8761C1274.85 81.8761 1274.45 69.6095 1274.45 43.3428V4.80946L1271.52 4.40946C1269.78 4.1428 1255.65 4.00946 1240.05 4.27613Z" fill="white"/>
<path d="M30.45 19.6095L0.45 34.5428L0.05 117.876C-0.0833333 163.743 0.05 202.543 0.45 204.143L1.11667 207.209H31.65C58.1833 207.209 62.3167 206.943 62.9833 205.076C63.3833 203.876 63.7833 185.076 63.7833 163.076C63.7833 141.209 64.1833 123.209 64.5833 123.209C65.1167 123.209 85.9167 140.943 87.7833 143.076C88.1833 143.609 97.1167 151.343 107.783 160.543C118.45 169.609 127.383 177.476 127.783 178.009C128.183 178.409 135.917 185.209 144.983 193.076L161.517 207.209H206.717C249.117 207.209 251.783 207.076 251.783 204.809C251.783 203.476 248.717 200.143 244.85 197.209C240.983 194.409 235.117 189.743 231.783 187.076C215.25 173.209 149.383 121.209 136.983 112.143C129.117 106.543 122.45 101.076 122.05 100.009C121.65 98.9428 125.783 95.2095 133.517 89.8761C153.65 76.0095 245.117 7.07613 245.117 5.7428C245.117 5.07613 226.983 4.5428 200.85 4.5428H156.45L144.317 14.9428C137.65 20.5428 121.25 34.5428 107.65 45.8761C94.1833 57.2095 79.1167 70.4095 74.1833 75.0761C69.1167 79.7428 64.7167 83.2095 64.3167 82.8095C63.9167 82.4095 63.3833 64.8095 63.3833 43.7428C63.25 19.4761 62.5833 5.3428 61.7833 5.07613C61.1167 4.9428 46.9833 11.4761 30.45 19.6095Z" fill="white"/>
<path d="M1488.72 5.3428C1488.18 5.87613 1487.78 50.8095 1487.78 105.209C1487.78 180.276 1488.18 204.409 1489.38 205.609C1490.58 206.809 1499.38 207.209 1520.72 207.209C1550.45 207.209 1550.45 207.209 1551.12 204.143C1551.52 202.543 1551.65 157.076 1551.52 103.209L1551.12 5.20946L1520.32 4.80946C1503.38 4.67613 1489.25 4.9428 1488.72 5.3428Z" fill="white"/>
<path d="M677.116 259.476C674.716 261.209 667.116 270.276 660.316 279.876C653.516 289.343 646.183 299.743 643.916 302.809C631.383 320.009 623.783 331.476 624.45 332.676C624.983 333.343 630.85 333.876 637.783 333.876H650.183L666.183 311.476C674.983 299.209 683.116 288.276 684.183 287.476C685.916 286.009 686.716 286.409 689.383 290.143C691.116 292.543 695.116 298.009 698.316 302.276C701.383 306.543 703.65 310.943 703.25 312.009C702.716 313.476 699.516 313.876 689.116 313.876C676.45 313.876 675.516 314.143 672.583 317.209C666.45 323.743 661.916 331.209 663.383 332.676C664.183 333.476 680.05 333.743 705.25 333.609C741.383 333.209 745.783 332.943 745.65 331.076C745.516 329.876 734.85 313.609 721.916 294.809C697.116 259.209 694.583 256.543 685.383 256.543C683.25 256.543 679.516 257.876 677.116 259.476Z" fill="white"/>
<path d="M988.45 257.21C987.783 257.343 983.517 258.41 979.117 259.343C959.517 263.476 949.383 274.41 948.05 292.676C946.85 309.21 953.517 321.876 966.583 328.676C983.25 337.076 1024.32 337.21 1040.85 328.676C1051.78 322.943 1059.78 309.21 1059.78 295.61C1059.78 288.41 1055.52 275.876 1051.52 271.476C1042.58 261.876 1024.98 256.543 1003.12 256.676C995.783 256.676 989.25 256.943 988.45 257.21ZM1026.58 279.61C1039.12 285.21 1038.72 307.876 1025.92 312.143C1012.05 316.81 995.517 316.943 981.783 312.276C972.717 309.343 968.983 296.81 973.917 286.41C976.317 281.343 978.45 279.876 986.05 277.876C993.783 276.01 1020.85 277.076 1026.58 279.61Z" fill="white"/>
<path d="M1359.12 259.076C1347.52 262.009 1342.45 264.543 1336.72 270.543C1325.52 282.143 1324.85 305.876 1335.38 320.009C1344.72 332.543 1376.85 338.676 1404.45 333.343C1428.45 328.809 1438.85 317.343 1438.85 295.876C1438.85 274.943 1430.32 265.076 1407.12 259.076C1394.85 255.876 1372.05 255.876 1359.12 259.076ZM1406.72 279.876C1414.58 283.743 1417.78 294.409 1413.92 303.609C1411.25 310.143 1408.05 312.143 1396.45 314.543C1378.98 318.143 1359.12 314.543 1354.45 306.809C1350.85 301.076 1350.98 290.943 1354.45 285.076C1358.72 278.276 1365.78 276.543 1387.12 277.076C1398.05 277.343 1402.98 278.143 1406.72 279.876Z" fill="white"/>
<path d="M747.917 260.41C746.317 263.343 746.05 297.343 747.65 308.143C750.183 325.743 768.05 335.343 798.45 335.21C818.583 335.076 833.783 330.143 840.183 321.61C845.783 314.276 846.583 308.41 846.183 282.543L845.783 258.543L835.783 258.143C827.517 257.876 825.517 258.143 824.183 260.01C822.983 261.743 822.45 268.676 822.45 284.543C822.45 310.41 822.183 310.943 809.517 314.676C797.517 318.143 774.983 314.543 772.317 308.81C771.783 307.61 770.983 295.743 770.583 282.543L769.783 258.543L759.517 258.143C750.45 257.876 749.117 258.01 747.917 260.41Z" fill="white"/>
<path d="M861.917 265.343C852.317 277.076 852.85 277.743 871.517 278.143L887.117 278.543L887.784 305.876L888.45 333.209H899.784H911.117L911.517 307.343C911.65 290.943 912.317 280.809 913.25 279.609C914.317 278.409 918.317 277.876 926.317 277.876C939.117 277.876 939.384 277.743 946.85 268.276C955.517 257.343 957.384 257.876 909.917 257.876H868.05L861.917 265.343Z" fill="white"/>
<path d="M1129.78 259.876C1118.32 263.076 1110.18 275.476 1112.98 285.476C1117.52 301.076 1123.38 303.343 1161.65 304.41C1185.38 305.076 1188.32 305.476 1189.65 307.61C1190.85 309.61 1190.58 310.41 1188.58 312.01C1186.45 313.476 1180.05 313.876 1156.98 313.876C1140.98 313.876 1127.12 314.276 1125.92 314.676C1123.12 315.743 1113.12 329.076 1113.12 331.743C1113.12 333.876 1115.92 334.01 1154.85 333.61C1194.98 333.21 1196.58 333.076 1201.12 330.276C1210.85 324.276 1212.45 321.476 1212.45 309.876C1212.45 298.01 1210.85 295.21 1201.78 291.076C1197.12 288.943 1192.72 288.543 1168.18 288.543C1144.32 288.543 1139.65 288.276 1137.92 286.41C1135.12 283.61 1135.25 280.943 1138.32 279.21C1139.92 278.41 1151.92 277.876 1168.05 277.876C1182.98 277.876 1195.92 277.343 1196.72 276.81C1199.38 275.076 1209.12 261.61 1209.12 259.61C1209.12 257.076 1139.25 257.343 1129.78 259.876Z" fill="white"/>
<path d="M1224.45 259.61C1224.05 260.543 1223.92 277.476 1224.05 297.21L1224.45 333.21H1235.78H1247.12L1247.52 319.61C1247.92 303.21 1246.05 304.276 1272.45 304.81L1291.12 305.21L1291.52 317.743C1291.65 324.676 1292.58 331.21 1293.38 332.143C1294.45 333.476 1297.78 333.876 1304.98 333.61L1315.12 333.21V295.876V258.543L1305.25 258.143C1299.38 257.876 1294.85 258.276 1293.92 259.21C1293.12 260.01 1292.18 265.876 1291.78 272.276L1291.12 283.876H1269.78H1248.45L1248.05 273.876C1247.52 257.21 1248.05 257.876 1235.65 257.876C1228.32 257.876 1224.85 258.41 1224.45 259.61Z" fill="white"/>
<path d="M1460.05 265.61C1448.98 278.41 1447.92 277.876 1485.78 277.876C1511.92 277.876 1519.38 278.276 1522.32 279.876C1529.12 283.343 1529.12 289.743 1522.45 293.21C1519.38 294.81 1512.18 295.21 1485.38 295.21C1456.18 295.21 1451.92 295.476 1451.25 297.343C1450.85 298.543 1450.45 306.276 1450.45 314.543C1450.45 322.81 1450.85 330.543 1451.25 331.743C1452.32 334.543 1470.72 334.81 1472.85 332.143C1473.65 331.21 1474.45 327.21 1474.72 323.21L1475.12 315.876L1499.12 314.943C1512.32 314.543 1525.52 313.61 1528.45 312.943C1537.25 310.943 1544.72 305.343 1548.45 297.876C1552.45 290.01 1552.72 284.143 1549.25 276.276C1546.18 269.21 1542.32 265.61 1533.78 261.61C1527.52 258.81 1525.12 258.543 1496.98 258.143L1466.85 257.61L1460.05 265.61Z" fill="white"/>
</svg>
